<?xml version="1.0" ?><svg xmlns="http://www.w3.org/2000/svg" width="148mm" height="210mm" viewBox="0 0 148 210" version="1.1">
<circle r="0.25" fill="#4d4d4d" cx="6.5" cy="3.75"/><circle r="0.25" fill="#4d4d4d" cx="14.0" cy="3.75"/><circle r="0.25" fill="#4d4d4d" cx="21.5" cy="3.75"/><circle r="0.25" fill="#4d4d4d" cx="29.0" cy="3.75"/><circle r="0.25" fill="#4d4d4d" cx="36.5" cy="3.75"/><circle r="0.25" fill="#4d4d4d" cx="44.0" cy="3.75"/><circle r="0.25" fill="#4d4d4d" cx="51.5" cy="3.75"/><circle r="0.25" fill="#4d4d4d" cx="59.0" cy="3.75"/><circle r="0.25" fill="#4d4d4d" cx="66.5" cy="3.75"/><circle r="0.25" fill="#4d4d4d" cx="74.0" cy="3.75"/><circle r="0.25" fill="#4d4d4d" cx="81.5" cy="3.75"/><circle r="0.25" fill="#4d4d4d" cx="89.0" cy="3.75"/><circle r="0.25" fill="#4d4d4d" cx="96.5" cy="3.75"/><circle r="0.25" fill="#4d4d4d" cx="104.0" cy="3.75"/><circle r="0.25" fill="#4d4d4d" cx="111.5" cy="3.75"/><circle r="0.25" fill="#4d4d4d" cx="119.0" cy="3.75"/><circle r="0.25" fill="#4d4d4d" cx="126.5" cy="3.75"/><circle r="0.25" fill="#4d4d4d" cx="134.0" cy="3.75"/><circle r="0.25" fill="#4d4d4d" cx="141.5" cy="3.75"/><circle r="0.25" fill="#4d4d4d" cx="6.5" cy="11.25"/><circle r="0.25" fill="#4d4d4d" cx="14.0" cy="11.25"/><circle r="0.25" fill="#4d4d4d" cx="21.5" cy="11.25"/><circle r="0.25" fill="#4d4d4d" cx="29.0" cy="11.25"/><circle r="0.25" fill="#4d4d4d" cx="36.5" cy="11.25"/><circle r="0.25" fill="#4d4d4d" cx="44.0" cy="11.25"/><circle r="0.25" fill="#4d4d4d" cx="51.5" cy="11.25"/><circle r="0.25" fill="#4d4d4d" cx="59.0" cy="11.25"/><circle r="0.25" fill="#4d4d4d" cx="66.5" cy="11.25"/><circle r="0.25" fill="#4d4d4d" cx="74.0" cy="11.25"/><circle r="0.25" fill="#4d4d4d" cx="81.5" cy="11.25"/><circle r="0.25" fill="#4d4d4d" cx="89.0" cy="11.25"/><circle r="0.25" fill="#4d4d4d" cx="96.5" cy="11.25"/><circle r="0.25" fill="#4d4d4d" cx="104.0" cy="11.25"/><circle r="0.25" fill="#4d4d4d" cx="111.5" cy="11.25"/><circle r="0.25" fill="#4d4d4d" cx="119.0" cy="11.25"/><circle r="0.25" fill="#4d4d4d" cx="126.5" cy="11.25"/><circle r="0.25" fill="#4d4d4d" cx="134.0" cy="11.25"/><circle r="0.25" fill="#4d4d4d" cx="141.5" cy="11.25"/><circle r="0.25" fill="#4d4d4d" cx="6.5" cy="18.75"/><circle r="0.25" fill="#4d4d4d" cx="14.0" cy="18.75"/><circle r="0.25" fill="#4d4d4d" cx="21.5" cy="18.75"/><circle r="0.25" fill="#4d4d4d" cx="29.0" cy="18.75"/><circle r="0.25" fill="#4d4d4d" cx="36.5" cy="18.75"/><circle r="0.25" fill="#4d4d4d" cx="44.0" cy="18.75"/><circle r="0.25" fill="#4d4d4d" cx="51.5" cy="18.75"/><circle r="0.25" fill="#4d4d4d" cx="59.0" cy="18.75"/><circle r="0.25" fill="#4d4d4d" cx="66.5" cy="18.75"/><circle r="0.25" fill="#4d4d4d" cx="74.0" cy="18.75"/><circle r="0.25" fill="#4d4d4d" cx="81.5" cy="18.75"/><circle r="0.25" fill="#4d4d4d" cx="89.0" cy="18.75"/><circle r="0.25" fill="#4d4d4d" cx="96.5" cy="18.75"/><circle r="0.25" fill="#4d4d4d" cx="104.0" cy="18.75"/><circle r="0.25" fill="#4d4d4d" cx="111.5" cy="18.75"/><circle r="0.25" fill="#4d4d4d" cx="119.0" cy="18.75"/><circle r="0.25" fill="#4d4d4d" cx="126.5" cy="18.75"/><circle r="0.25" fill="#4d4d4d" cx="134.0" cy="18.75"/><circle r="0.25" fill="#4d4d4d" cx="141.5" cy="18.75"/><circle r="0.25" fill="#4d4d4d" cx="6.5" cy="26.25"/><circle r="0.25" fill="#4d4d4d" cx="14.0" cy="26.25"/><circle r="0.25" fill="#4d4d4d" cx="21.5" cy="26.25"/><circle r="0.25" fill="#4d4d4d" cx="29.0" cy="26.25"/><circle r="0.25" fill="#4d4d4d" cx="36.5" cy="26.25"/><circle r="0.25" fill="#4d4d4d" cx="44.0" cy="26.25"/><circle r="0.25" fill="#4d4d4d" cx="51.5" cy="26.25"/><circle r="0.25" fill="#4d4d4d" cx="59.0" cy="26.25"/><circle r="0.25" fill="#4d4d4d" cx="66.5" cy="26.25"/><circle r="0.25" fill="#4d4d4d" cx="74.0" cy="26.25"/><circle r="0.25" fill="#4d4d4d" cx="81.5" cy="26.25"/><circle r="0.25" fill="#4d4d4d" cx="89.0" cy="26.25"/><circle r="0.25" fill="#4d4d4d" cx="96.5" cy="26.25"/><circle r="0.25" fill="#4d4d4d" cx="104.0" cy="26.25"/><circle r="0.25" fill="#4d4d4d" cx="111.5" cy="26.25"/><circle r="0.25" fill="#4d4d4d" cx="119.0" cy="26.25"/><circle r="0.25" fill="#4d4d4d" cx="126.5" cy="26.25"/><circle r="0.25" fill="#4d4d4d" cx="134.0" cy="26.25"/><circle r="0.25" fill="#4d4d4d" cx="141.5" cy="26.25"/><circle r="0.25" fill="#4d4d4d" cx="6.5" cy="33.75"/><circle r="0.25" fill="#4d4d4d" cx="14.0" cy="33.75"/><circle r="0.25" fill="#4d4d4d" cx="21.5" cy="33.75"/><circle r="0.25" fill="#4d4d4d" cx="29.0" cy="33.75"/><circle r="0.25" fill="#4d4d4d" cx="36.5" cy="33.75"/><circle r="0.25" fill="#4d4d4d" cx="44.0" cy="33.75"/><circle r="0.25" fill="#4d4d4d" cx="51.5" cy="33.75"/><circle r="0.25" fill="#4d4d4d" cx="59.0" cy="33.75"/><circle r="0.25" fill="#4d4d4d" cx="66.5" cy="33.75"/><circle r="0.25" fill="#4d4d4d" cx="74.0" cy="33.75"/><circle r="0.25" fill="#4d4d4d" cx="81.5" cy="33.75"/><circle r="0.25" fill="#4d4d4d" cx="89.0" cy="33.75"/><circle r="0.25" fill="#4d4d4d" cx="96.5" cy="33.75"/><circle r="0.25" fill="#4d4d4d" cx="104.0" cy="33.75"/><circle r="0.25" fill="#4d4d4d" cx="111.5" cy="33.75"/><circle r="0.25" fill="#4d4d4d" cx="119.0" cy="33.75"/><circle r="0.25" fill="#4d4d4d" cx="126.5" cy="33.75"/><circle r="0.25" fill="#4d4d4d" cx="134.0" cy="33.75"/><circle r="0.25" fill="#4d4d4d" cx="141.5" cy="33.75"/><circle r="0.25" fill="#4d4d4d" cx="6.5" cy="41.25"/><circle r="0.25" fill="#4d4d4d" cx="14.0" cy="41.25"/><circle r="0.25" fill="#4d4d4d" cx="21.5" cy="41.25"/><circle r="0.25" fill="#4d4d4d" cx="29.0" cy="41.25"/><circle r="0.25" fill="#4d4d4d" cx="36.5" cy="41.25"/><circle r="0.25" fill="#4d4d4d" cx="44.0" cy="41.25"/><circle r="0.25" fill="#4d4d4d" cx="51.5" cy="41.25"/><circle r="0.25" fill="#4d4d4d" cx="59.0" cy="41.25"/><circle r="0.25" fill="#4d4d4d" cx="66.5" cy="41.25"/><circle r="0.25" fill="#4d4d4d" cx="74.0" cy="41.25"/><circle r="0.25" fill="#4d4d4d" cx="81.5" cy="41.25"/><circle r="0.25" fill="#4d4d4d" cx="89.0" cy="41.25"/><circle r="0.25" fill="#4d4d4d" cx="96.5" cy="41.25"/><circle r="0.25" fill="#4d4d4d" cx="104.0" cy="41.25"/><circle r="0.25" fill="#4d4d4d" cx="111.5" cy="41.25"/><circle r="0.25" fill="#4d4d4d" cx="119.0" cy="41.25"/><circle r="0.25" fill="#4d4d4d" cx="126.5" cy="41.25"/><circle r="0.25" fill="#4d4d4d" cx="134.0" cy="41.25"/><circle r="0.25" fill="#4d4d4d" cx="141.5" cy="41.25"/><circle r="0.25" fill="#4d4d4d" cx="6.5" cy="48.75"/><circle r="0.25" fill="#4d4d4d" cx="14.0" cy="48.75"/><circle r="0.25" fill="#4d4d4d" cx="21.5" cy="48.75"/><circle r="0.25" fill="#4d4d4d" cx="29.0" cy="48.75"/><circle r="0.25" fill="#4d4d4d" cx="36.5" cy="48.75"/><circle r="0.25" fill="#4d4d4d" cx="44.0" cy="48.75"/><circle r="0.25" fill="#4d4d4d" cx="51.5" cy="48.75"/><circle r="0.25" fill="#4d4d4d" cx="59.0" cy="48.75"/><circle r="0.25" fill="#4d4d4d" cx="66.5" cy="48.75"/><circle r="0.25" fill="#4d4d4d" cx="74.0" cy="48.75"/><circle r="0.25" fill="#4d4d4d" cx="81.5" cy="48.75"/><circle r="0.25" fill="#4d4d4d" cx="89.0" cy="48.75"/><circle r="0.25" fill="#4d4d4d" cx="96.5" cy="48.75"/><circle r="0.25" fill="#4d4d4d" cx="104.0" cy="48.75"/><circle r="0.25" fill="#4d4d4d" cx="111.5" cy="48.75"/><circle r="0.25" fill="#4d4d4d" cx="119.0" cy="48.75"/><circle r="0.25" fill="#4d4d4d" cx="126.5" cy="48.75"/><circle r="0.25" fill="#4d4d4d" cx="134.0" cy="48.75"/><circle r="0.25" fill="#4d4d4d" cx="141.5" cy="48.75"/><circle r="0.25" fill="#4d4d4d" cx="6.5" cy="56.25"/><circle r="0.25" fill="#4d4d4d" cx="14.0" cy="56.25"/><circle r="0.25" fill="#4d4d4d" cx="21.5" cy="56.25"/><circle r="0.25" fill="#4d4d4d" cx="29.0" cy="56.25"/><circle r="0.25" fill="#4d4d4d" cx="36.5" cy="56.25"/><circle r="0.25" fill="#4d4d4d" cx="44.0" cy="56.25"/><circle r="0.25" fill="#4d4d4d" cx="51.5" cy="56.25"/><circle r="0.25" fill="#4d4d4d" cx="59.0" cy="56.25"/><circle r="0.25" fill="#4d4d4d" cx="66.5" cy="56.25"/><circle r="0.25" fill="#4d4d4d" cx="74.0" cy="56.25"/><circle r="0.25" fill="#4d4d4d" cx="81.5" cy="56.25"/><circle r="0.25" fill="#4d4d4d" cx="89.0" cy="56.25"/><circle r="0.25" fill="#4d4d4d" cx="96.5" cy="56.25"/><circle r="0.25" fill="#4d4d4d" cx="104.0" cy="56.25"/><circle r="0.25" fill="#4d4d4d" cx="111.5" cy="56.25"/><circle r="0.25" fill="#4d4d4d" cx="119.0" cy="56.25"/><circle r="0.25" fill="#4d4d4d" cx="126.5" cy="56.25"/><circle r="0.25" fill="#4d4d4d" cx="134.0" cy="56.25"/><circle r="0.25" fill="#4d4d4d" cx="141.5" cy="56.25"/><circle r="0.25" fill="#4d4d4d" cx="6.5" cy="63.75"/><circle r="0.25" fill="#4d4d4d" cx="14.0" cy="63.75"/><circle r="0.25" fill="#4d4d4d" cx="21.5" cy="63.75"/><circle r="0.25" fill="#4d4d4d" cx="29.0" cy="63.75"/><circle r="0.25" fill="#4d4d4d" cx="36.5" cy="63.75"/><circle r="0.25" fill="#4d4d4d" cx="44.0" cy="63.75"/><circle r="0.25" fill="#4d4d4d" cx="51.5" cy="63.75"/><circle r="0.25" fill="#4d4d4d" cx="59.0" cy="63.75"/><circle r="0.25" fill="#4d4d4d" cx="66.5" cy="63.75"/><circle r="0.25" fill="#4d4d4d" cx="74.0" cy="63.75"/><circle r="0.25" fill="#4d4d4d" cx="81.5" cy="63.75"/><circle r="0.25" fill="#4d4d4d" cx="89.0" cy="63.75"/><circle r="0.25" fill="#4d4d4d" cx="96.5" cy="63.75"/><circle r="0.25" fill="#4d4d4d" cx="104.0" cy="63.75"/><circle r="0.25" fill="#4d4d4d" cx="111.5" cy="63.75"/><circle r="0.25" fill="#4d4d4d" cx="119.0" cy="63.75"/><circle r="0.25" fill="#4d4d4d" cx="126.5" cy="63.75"/><circle r="0.25" fill="#4d4d4d" cx="134.0" cy="63.75"/><circle r="0.25" fill="#4d4d4d" cx="141.5" cy="63.75"/><circle r="0.25" fill="#4d4d4d" cx="6.5" cy="71.25"/><circle r="0.25" fill="#4d4d4d" cx="14.0" cy="71.25"/><circle r="0.25" fill="#4d4d4d" cx="21.5" cy="71.25"/><circle r="0.25" fill="#4d4d4d" cx="29.0" cy="71.25"/><circle r="0.25" fill="#4d4d4d" cx="36.5" cy="71.25"/><circle r="0.25" fill="#4d4d4d" cx="44.0" cy="71.25"/><circle r="0.25" fill="#4d4d4d" cx="51.5" cy="71.25"/><circle r="0.25" fill="#4d4d4d" cx="59.0" cy="71.25"/><circle r="0.25" fill="#4d4d4d" cx="66.5" cy="71.25"/><circle r="0.25" fill="#4d4d4d" cx="74.0" cy="71.25"/><circle r="0.25" fill="#4d4d4d" cx="81.5" cy="71.25"/><circle r="0.25" fill="#4d4d4d" cx="89.0" cy="71.25"/><circle r="0.25" fill="#4d4d4d" cx="96.5" cy="71.25"/><circle r="0.25" fill="#4d4d4d" cx="104.0" cy="71.25"/><circle r="0.25" fill="#4d4d4d" cx="111.5" cy="71.25"/><circle r="0.25" fill="#4d4d4d" cx="119.0" cy="71.25"/><circle r="0.25" fill="#4d4d4d" cx="126.5" cy="71.25"/><circle r="0.25" fill="#4d4d4d" cx="134.0" cy="71.25"/><circle r="0.25" fill="#4d4d4d" cx="141.5" cy="71.25"/><circle r="0.25" fill="#4d4d4d" cx="6.5" cy="78.75"/><circle r="0.25" fill="#4d4d4d" cx="14.0" cy="78.75"/><circle r="0.25" fill="#4d4d4d" cx="21.5" cy="78.75"/><circle r="0.25" fill="#4d4d4d" cx="29.0" cy="78.75"/><circle r="0.25" fill="#4d4d4d" cx="36.5" cy="78.75"/><circle r="0.25" fill="#4d4d4d" cx="44.0" cy="78.75"/><circle r="0.25" fill="#4d4d4d" cx="51.5" cy="78.75"/><circle r="0.25" fill="#4d4d4d" cx="59.0" cy="78.75"/><circle r="0.25" fill="#4d4d4d" cx="66.5" cy="78.75"/><circle r="0.25" fill="#4d4d4d" cx="74.0" cy="78.75"/><circle r="0.25" fill="#4d4d4d" cx="81.5" cy="78.75"/><circle r="0.25" fill="#4d4d4d" cx="89.0" cy="78.75"/><circle r="0.25" fill="#4d4d4d" cx="96.5" cy="78.75"/><circle r="0.25" fill="#4d4d4d" cx="104.0" cy="78.75"/><circle r="0.25" fill="#4d4d4d" cx="111.5" cy="78.75"/><circle r="0.25" fill="#4d4d4d" cx="119.0" cy="78.75"/><circle r="0.25" fill="#4d4d4d" cx="126.5" cy="78.75"/><circle r="0.25" fill="#4d4d4d" cx="134.0" cy="78.75"/><circle r="0.25" fill="#4d4d4d" cx="141.5" cy="78.75"/><circle r="0.25" fill="#4d4d4d" cx="6.5" cy="86.25"/><circle r="0.25" fill="#4d4d4d" cx="14.0" cy="86.25"/><circle r="0.25" fill="#4d4d4d" cx="21.5" cy="86.25"/><circle r="0.25" fill="#4d4d4d" cx="29.0" cy="86.25"/><circle r="0.25" fill="#4d4d4d" cx="36.5" cy="86.25"/><circle r="0.25" fill="#4d4d4d" cx="44.0" cy="86.25"/><circle r="0.25" fill="#4d4d4d" cx="51.5" cy="86.25"/><circle r="0.25" fill="#4d4d4d" cx="59.0" cy="86.25"/><circle r="0.25" fill="#4d4d4d" cx="66.5" cy="86.25"/><circle r="0.25" fill="#4d4d4d" cx="74.0" cy="86.25"/><circle r="0.25" fill="#4d4d4d" cx="81.5" cy="86.25"/><circle r="0.25" fill="#4d4d4d" cx="89.0" cy="86.25"/><circle r="0.25" fill="#4d4d4d" cx="96.5" cy="86.25"/><circle r="0.25" fill="#4d4d4d" cx="104.0" cy="86.25"/><circle r="0.25" fill="#4d4d4d" cx="111.5" cy="86.25"/><circle r="0.25" fill="#4d4d4d" cx="119.0" cy="86.25"/><circle r="0.25" fill="#4d4d4d" cx="126.5" cy="86.25"/><circle r="0.25" fill="#4d4d4d" cx="134.0" cy="86.25"/><circle r="0.25" fill="#4d4d4d" cx="141.5" cy="86.25"/><circle r="0.25" fill="#4d4d4d" cx="6.5" cy="93.75"/><circle r="0.25" fill="#4d4d4d" cx="14.0" cy="93.75"/><circle r="0.25" fill="#4d4d4d" cx="21.5" cy="93.75"/><circle r="0.25" fill="#4d4d4d" cx="29.0" cy="93.75"/><circle r="0.25" fill="#4d4d4d" cx="36.5" cy="93.75"/><circle r="0.25" fill="#4d4d4d" cx="44.0" cy="93.75"/><circle r="0.25" fill="#4d4d4d" cx="51.5" cy="93.75"/><circle r="0.25" fill="#4d4d4d" cx="59.0" cy="93.75"/><circle r="0.25" fill="#4d4d4d" cx="66.5" cy="93.75"/><circle r="0.25" fill="#4d4d4d" cx="74.0" cy="93.75"/><circle r="0.25" fill="#4d4d4d" cx="81.5" cy="93.75"/><circle r="0.25" fill="#4d4d4d" cx="89.0" cy="93.75"/><circle r="0.25" fill="#4d4d4d" cx="96.5" cy="93.75"/><circle r="0.25" fill="#4d4d4d" cx="104.0" cy="93.75"/><circle r="0.25" fill="#4d4d4d" cx="111.5" cy="93.75"/><circle r="0.25" fill="#4d4d4d" cx="119.0" cy="93.75"/><circle r="0.25" fill="#4d4d4d" cx="126.5" cy="93.75"/><circle r="0.25" fill="#4d4d4d" cx="134.0" cy="93.75"/><circle r="0.25" fill="#4d4d4d" cx="141.5" cy="93.75"/><circle r="0.25" fill="#4d4d4d" cx="6.5" cy="101.25"/><circle r="0.25" fill="#4d4d4d" cx="14.0" cy="101.25"/><circle r="0.25" fill="#4d4d4d" cx="21.5" cy="101.25"/><circle r="0.25" fill="#4d4d4d" cx="29.0" cy="101.25"/><circle r="0.25" fill="#4d4d4d" cx="36.5" cy="101.25"/><circle r="0.25" fill="#4d4d4d" cx="44.0" cy="101.25"/><circle r="0.25" fill="#4d4d4d" cx="51.5" cy="101.25"/><circle r="0.25" fill="#4d4d4d" cx="59.0" cy="101.25"/><circle r="0.25" fill="#4d4d4d" cx="66.5" cy="101.25"/><circle r="0.25" fill="#4d4d4d" cx="74.0" cy="101.25"/><circle r="0.25" fill="#4d4d4d" cx="81.5" cy="101.25"/><circle r="0.25" fill="#4d4d4d" cx="89.0" cy="101.25"/><circle r="0.25" fill="#4d4d4d" cx="96.5" cy="101.25"/><circle r="0.25" fill="#4d4d4d" cx="104.0" cy="101.25"/><circle r="0.25" fill="#4d4d4d" cx="111.5" cy="101.25"/><circle r="0.25" fill="#4d4d4d" cx="119.0" cy="101.25"/><circle r="0.25" fill="#4d4d4d" cx="126.5" cy="101.25"/><circle r="0.25" fill="#4d4d4d" cx="134.0" cy="101.25"/><circle r="0.25" fill="#4d4d4d" cx="141.5" cy="101.25"/><circle r="0.25" fill="#4d4d4d" cx="6.5" cy="108.75"/><circle r="0.25" fill="#4d4d4d" cx="14.0" cy="108.75"/><circle r="0.25" fill="#4d4d4d" cx="21.5" cy="108.75"/><circle r="0.25" fill="#4d4d4d" cx="29.0" cy="108.75"/><circle r="0.25" fill="#4d4d4d" cx="36.5" cy="108.75"/><circle r="0.25" fill="#4d4d4d" cx="44.0" cy="108.75"/><circle r="0.25" fill="#4d4d4d" cx="51.5" cy="108.75"/><circle r="0.25" fill="#4d4d4d" cx="59.0" cy="108.75"/><circle r="0.25" fill="#4d4d4d" cx="66.5" cy="108.75"/><circle r="0.25" fill="#4d4d4d" cx="74.0" cy="108.75"/><circle r="0.25" fill="#4d4d4d" cx="81.5" cy="108.75"/><circle r="0.25" fill="#4d4d4d" cx="89.0" cy="108.75"/><circle r="0.25" fill="#4d4d4d" cx="96.5" cy="108.75"/><circle r="0.25" fill="#4d4d4d" cx="104.0" cy="108.75"/><circle r="0.25" fill="#4d4d4d" cx="111.5" cy="108.75"/><circle r="0.25" fill="#4d4d4d" cx="119.0" cy="108.75"/><circle r="0.25" fill="#4d4d4d" cx="126.5" cy="108.75"/><circle r="0.25" fill="#4d4d4d" cx="134.0" cy="108.75"/><circle r="0.25" fill="#4d4d4d" cx="141.5" cy="108.75"/><circle r="0.25" fill="#4d4d4d" cx="6.5" cy="116.25"/><circle r="0.25" fill="#4d4d4d" cx="14.0" cy="116.25"/><circle r="0.25" fill="#4d4d4d" cx="21.5" cy="116.25"/><circle r="0.25" fill="#4d4d4d" cx="29.0" cy="116.25"/><circle r="0.25" fill="#4d4d4d" cx="36.5" cy="116.25"/><circle r="0.25" fill="#4d4d4d" cx="44.0" cy="116.25"/><circle r="0.25" fill="#4d4d4d" cx="51.5" cy="116.25"/><circle r="0.25" fill="#4d4d4d" cx="59.0" cy="116.25"/><circle r="0.25" fill="#4d4d4d" cx="66.5" cy="116.25"/><circle r="0.25" fill="#4d4d4d" cx="74.0" cy="116.25"/><circle r="0.25" fill="#4d4d4d" cx="81.5" cy="116.25"/><circle r="0.25" fill="#4d4d4d" cx="89.0" cy="116.25"/><circle r="0.25" fill="#4d4d4d" cx="96.5" cy="116.25"/><circle r="0.25" fill="#4d4d4d" cx="104.0" cy="116.25"/><circle r="0.25" fill="#4d4d4d" cx="111.5" cy="116.25"/><circle r="0.25" fill="#4d4d4d" cx="119.0" cy="116.25"/><circle r="0.25" fill="#4d4d4d" cx="126.5" cy="116.25"/><circle r="0.25" fill="#4d4d4d" cx="134.0" cy="116.25"/><circle r="0.25" fill="#4d4d4d" cx="141.5" cy="116.25"/><circle r="0.25" fill="#4d4d4d" cx="6.5" cy="123.75"/><circle r="0.25" fill="#4d4d4d" cx="14.0" cy="123.75"/><circle r="0.25" fill="#4d4d4d" cx="21.5" cy="123.75"/><circle r="0.25" fill="#4d4d4d" cx="29.0" cy="123.75"/><circle r="0.25" fill="#4d4d4d" cx="36.5" cy="123.75"/><circle r="0.25" fill="#4d4d4d" cx="44.0" cy="123.75"/><circle r="0.25" fill="#4d4d4d" cx="51.5" cy="123.75"/><circle r="0.25" fill="#4d4d4d" cx="59.0" cy="123.75"/><circle r="0.25" fill="#4d4d4d" cx="66.5" cy="123.75"/><circle r="0.25" fill="#4d4d4d" cx="74.0" cy="123.75"/><circle r="0.25" fill="#4d4d4d" cx="81.5" cy="123.75"/><circle r="0.25" fill="#4d4d4d" cx="89.0" cy="123.75"/><circle r="0.25" fill="#4d4d4d" cx="96.5" cy="123.75"/><circle r="0.25" fill="#4d4d4d" cx="104.0" cy="123.75"/><circle r="0.25" fill="#4d4d4d" cx="111.5" cy="123.75"/><circle r="0.25" fill="#4d4d4d" cx="119.0" cy="123.75"/><circle r="0.25" fill="#4d4d4d" cx="126.5" cy="123.75"/><circle r="0.25" fill="#4d4d4d" cx="134.0" cy="123.75"/><circle r="0.25" fill="#4d4d4d" cx="141.5" cy="123.75"/><circle r="0.25" fill="#4d4d4d" cx="6.5" cy="131.25"/><circle r="0.25" fill="#4d4d4d" cx="14.0" cy="131.25"/><circle r="0.25" fill="#4d4d4d" cx="21.5" cy="131.25"/><circle r="0.25" fill="#4d4d4d" cx="29.0" cy="131.25"/><circle r="0.25" fill="#4d4d4d" cx="36.5" cy="131.25"/><circle r="0.25" fill="#4d4d4d" cx="44.0" cy="131.25"/><circle r="0.25" fill="#4d4d4d" cx="51.5" cy="131.25"/><circle r="0.25" fill="#4d4d4d" cx="59.0" cy="131.25"/><circle r="0.25" fill="#4d4d4d" cx="66.5" cy="131.25"/><circle r="0.25" fill="#4d4d4d" cx="74.0" cy="131.25"/><circle r="0.25" fill="#4d4d4d" cx="81.5" cy="131.25"/><circle r="0.25" fill="#4d4d4d" cx="89.0" cy="131.25"/><circle r="0.25" fill="#4d4d4d" cx="96.5" cy="131.25"/><circle r="0.25" fill="#4d4d4d" cx="104.0" cy="131.25"/><circle r="0.25" fill="#4d4d4d" cx="111.5" cy="131.25"/><circle r="0.25" fill="#4d4d4d" cx="119.0" cy="131.25"/><circle r="0.25" fill="#4d4d4d" cx="126.5" cy="131.25"/><circle r="0.25" fill="#4d4d4d" cx="134.0" cy="131.25"/><circle r="0.25" fill="#4d4d4d" cx="141.5" cy="131.25"/><circle r="0.25" fill="#4d4d4d" cx="6.5" cy="138.75"/><circle r="0.25" fill="#4d4d4d" cx="14.0" cy="138.75"/><circle r="0.25" fill="#4d4d4d" cx="21.5" cy="138.75"/><circle r="0.25" fill="#4d4d4d" cx="29.0" cy="138.75"/><circle r="0.25" fill="#4d4d4d" cx="36.5" cy="138.75"/><circle r="0.25" fill="#4d4d4d" cx="44.0" cy="138.75"/><circle r="0.25" fill="#4d4d4d" cx="51.5" cy="138.75"/><circle r="0.25" fill="#4d4d4d" cx="59.0" cy="138.75"/><circle r="0.25" fill="#4d4d4d" cx="66.5" cy="138.75"/><circle r="0.25" fill="#4d4d4d" cx="74.0" cy="138.75"/><circle r="0.25" fill="#4d4d4d" cx="81.5" cy="138.75"/><circle r="0.25" fill="#4d4d4d" cx="89.0" cy="138.75"/><circle r="0.25" fill="#4d4d4d" cx="96.5" cy="138.75"/><circle r="0.25" fill="#4d4d4d" cx="104.0" cy="138.75"/><circle r="0.25" fill="#4d4d4d" cx="111.5" cy="138.75"/><circle r="0.25" fill="#4d4d4d" cx="119.0" cy="138.75"/><circle r="0.25" fill="#4d4d4d" cx="126.5" cy="138.75"/><circle r="0.25" fill="#4d4d4d" cx="134.0" cy="138.75"/><circle r="0.25" fill="#4d4d4d" cx="141.5" cy="138.75"/><circle r="0.25" fill="#4d4d4d" cx="6.5" cy="146.25"/><circle r="0.25" fill="#4d4d4d" cx="14.0" cy="146.25"/><circle r="0.25" fill="#4d4d4d" cx="21.5" cy="146.25"/><circle r="0.25" fill="#4d4d4d" cx="29.0" cy="146.25"/><circle r="0.25" fill="#4d4d4d" cx="36.5" cy="146.25"/><circle r="0.25" fill="#4d4d4d" cx="44.0" cy="146.25"/><circle r="0.25" fill="#4d4d4d" cx="51.5" cy="146.25"/><circle r="0.25" fill="#4d4d4d" cx="59.0" cy="146.25"/><circle r="0.25" fill="#4d4d4d" cx="66.5" cy="146.25"/><circle r="0.25" fill="#4d4d4d" cx="74.0" cy="146.25"/><circle r="0.25" fill="#4d4d4d" cx="81.5" cy="146.25"/><circle r="0.25" fill="#4d4d4d" cx="89.0" cy="146.25"/><circle r="0.25" fill="#4d4d4d" cx="96.5" cy="146.25"/><circle r="0.25" fill="#4d4d4d" cx="104.0" cy="146.25"/><circle r="0.25" fill="#4d4d4d" cx="111.5" cy="146.25"/><circle r="0.25" fill="#4d4d4d" cx="119.0" cy="146.25"/><circle r="0.25" fill="#4d4d4d" cx="126.5" cy="146.25"/><circle r="0.25" fill="#4d4d4d" cx="134.0" cy="146.25"/><circle r="0.25" fill="#4d4d4d" cx="141.5" cy="146.25"/><circle r="0.25" fill="#4d4d4d" cx="6.5" cy="153.75"/><circle r="0.25" fill="#4d4d4d" cx="14.0" cy="153.75"/><circle r="0.25" fill="#4d4d4d" cx="21.5" cy="153.75"/><circle r="0.25" fill="#4d4d4d" cx="29.0" cy="153.75"/><circle r="0.25" fill="#4d4d4d" cx="36.5" cy="153.75"/><circle r="0.25" fill="#4d4d4d" cx="44.0" cy="153.75"/><circle r="0.25" fill="#4d4d4d" cx="51.5" cy="153.75"/><circle r="0.25" fill="#4d4d4d" cx="59.0" cy="153.75"/><circle r="0.25" fill="#4d4d4d" cx="66.5" cy="153.75"/><circle r="0.25" fill="#4d4d4d" cx="74.0" cy="153.75"/><circle r="0.25" fill="#4d4d4d" cx="81.5" cy="153.75"/><circle r="0.25" fill="#4d4d4d" cx="89.0" cy="153.75"/><circle r="0.25" fill="#4d4d4d" cx="96.5" cy="153.75"/><circle r="0.25" fill="#4d4d4d" cx="104.0" cy="153.75"/><circle r="0.25" fill="#4d4d4d" cx="111.5" cy="153.75"/><circle r="0.25" fill="#4d4d4d" cx="119.0" cy="153.75"/><circle r="0.25" fill="#4d4d4d" cx="126.5" cy="153.75"/><circle r="0.25" fill="#4d4d4d" cx="134.0" cy="153.75"/><circle r="0.25" fill="#4d4d4d" cx="141.5" cy="153.75"/><circle r="0.25" fill="#4d4d4d" cx="6.5" cy="161.25"/><circle r="0.25" fill="#4d4d4d" cx="14.0" cy="161.25"/><circle r="0.25" fill="#4d4d4d" cx="21.5" cy="161.25"/><circle r="0.25" fill="#4d4d4d" cx="29.0" cy="161.25"/><circle r="0.25" fill="#4d4d4d" cx="36.5" cy="161.25"/><circle r="0.25" fill="#4d4d4d" cx="44.0" cy="161.25"/><circle r="0.25" fill="#4d4d4d" cx="51.5" cy="161.25"/><circle r="0.25" fill="#4d4d4d" cx="59.0" cy="161.25"/><circle r="0.25" fill="#4d4d4d" cx="66.5" cy="161.25"/><circle r="0.25" fill="#4d4d4d" cx="74.0" cy="161.25"/><circle r="0.25" fill="#4d4d4d" cx="81.5" cy="161.25"/><circle r="0.25" fill="#4d4d4d" cx="89.0" cy="161.25"/><circle r="0.25" fill="#4d4d4d" cx="96.5" cy="161.25"/><circle r="0.25" fill="#4d4d4d" cx="104.0" cy="161.25"/><circle r="0.25" fill="#4d4d4d" cx="111.5" cy="161.25"/><circle r="0.25" fill="#4d4d4d" cx="119.0" cy="161.25"/><circle r="0.25" fill="#4d4d4d" cx="126.5" cy="161.25"/><circle r="0.25" fill="#4d4d4d" cx="134.0" cy="161.25"/><circle r="0.25" fill="#4d4d4d" cx="141.5" cy="161.25"/><circle r="0.25" fill="#4d4d4d" cx="6.5" cy="168.75"/><circle r="0.25" fill="#4d4d4d" cx="14.0" cy="168.75"/><circle r="0.25" fill="#4d4d4d" cx="21.5" cy="168.75"/><circle r="0.25" fill="#4d4d4d" cx="29.0" cy="168.75"/><circle r="0.25" fill="#4d4d4d" cx="36.5" cy="168.75"/><circle r="0.25" fill="#4d4d4d" cx="44.0" cy="168.75"/><circle r="0.25" fill="#4d4d4d" cx="51.5" cy="168.75"/><circle r="0.25" fill="#4d4d4d" cx="59.0" cy="168.75"/><circle r="0.25" fill="#4d4d4d" cx="66.5" cy="168.75"/><circle r="0.25" fill="#4d4d4d" cx="74.0" cy="168.75"/><circle r="0.25" fill="#4d4d4d" cx="81.5" cy="168.75"/><circle r="0.25" fill="#4d4d4d" cx="89.0" cy="168.75"/><circle r="0.25" fill="#4d4d4d" cx="96.5" cy="168.75"/><circle r="0.25" fill="#4d4d4d" cx="104.0" cy="168.75"/><circle r="0.25" fill="#4d4d4d" cx="111.5" cy="168.75"/><circle r="0.25" fill="#4d4d4d" cx="119.0" cy="168.75"/><circle r="0.25" fill="#4d4d4d" cx="126.5" cy="168.75"/><circle r="0.25" fill="#4d4d4d" cx="134.0" cy="168.75"/><circle r="0.25" fill="#4d4d4d" cx="141.5" cy="168.75"/><circle r="0.25" fill="#4d4d4d" cx="6.5" cy="176.25"/><circle r="0.25" fill="#4d4d4d" cx="14.0" cy="176.25"/><circle r="0.25" fill="#4d4d4d" cx="21.5" cy="176.25"/><circle r="0.25" fill="#4d4d4d" cx="29.0" cy="176.25"/><circle r="0.25" fill="#4d4d4d" cx="36.5" cy="176.25"/><circle r="0.25" fill="#4d4d4d" cx="44.0" cy="176.25"/><circle r="0.25" fill="#4d4d4d" cx="51.5" cy="176.25"/><circle r="0.25" fill="#4d4d4d" cx="59.0" cy="176.25"/><circle r="0.25" fill="#4d4d4d" cx="66.5" cy="176.25"/><circle r="0.25" fill="#4d4d4d" cx="74.0" cy="176.25"/><circle r="0.25" fill="#4d4d4d" cx="81.5" cy="176.25"/><circle r="0.25" fill="#4d4d4d" cx="89.0" cy="176.25"/><circle r="0.25" fill="#4d4d4d" cx="96.5" cy="176.25"/><circle r="0.25" fill="#4d4d4d" cx="104.0" cy="176.25"/><circle r="0.25" fill="#4d4d4d" cx="111.5" cy="176.25"/><circle r="0.25" fill="#4d4d4d" cx="119.0" cy="176.25"/><circle r="0.25" fill="#4d4d4d" cx="126.5" cy="176.25"/><circle r="0.25" fill="#4d4d4d" cx="134.0" cy="176.25"/><circle r="0.25" fill="#4d4d4d" cx="141.5" cy="176.25"/><circle r="0.25" fill="#4d4d4d" cx="6.5" cy="183.75"/><circle r="0.25" fill="#4d4d4d" cx="14.0" cy="183.75"/><circle r="0.25" fill="#4d4d4d" cx="21.5" cy="183.75"/><circle r="0.25" fill="#4d4d4d" cx="29.0" cy="183.75"/><circle r="0.25" fill="#4d4d4d" cx="36.5" cy="183.75"/><circle r="0.25" fill="#4d4d4d" cx="44.0" cy="183.75"/><circle r="0.25" fill="#4d4d4d" cx="51.5" cy="183.75"/><circle r="0.25" fill="#4d4d4d" cx="59.0" cy="183.75"/><circle r="0.25" fill="#4d4d4d" cx="66.5" cy="183.75"/><circle r="0.25" fill="#4d4d4d" cx="74.0" cy="183.75"/><circle r="0.25" fill="#4d4d4d" cx="81.5" cy="183.75"/><circle r="0.25" fill="#4d4d4d" cx="89.0" cy="183.75"/><circle r="0.25" fill="#4d4d4d" cx="96.5" cy="183.75"/><circle r="0.25" fill="#4d4d4d" cx="104.0" cy="183.75"/><circle r="0.25" fill="#4d4d4d" cx="111.5" cy="183.75"/><circle r="0.25" fill="#4d4d4d" cx="119.0" cy="183.75"/><circle r="0.25" fill="#4d4d4d" cx="126.5" cy="183.75"/><circle r="0.25" fill="#4d4d4d" cx="134.0" cy="183.75"/><circle r="0.25" fill="#4d4d4d" cx="141.5" cy="183.75"/><circle r="0.25" fill="#4d4d4d" cx="6.5" cy="191.25"/><circle r="0.25" fill="#4d4d4d" cx="14.0" cy="191.25"/><circle r="0.25" fill="#4d4d4d" cx="21.5" cy="191.25"/><circle r="0.25" fill="#4d4d4d" cx="29.0" cy="191.25"/><circle r="0.25" fill="#4d4d4d" cx="36.5" cy="191.25"/><circle r="0.25" fill="#4d4d4d" cx="44.0" cy="191.25"/><circle r="0.25" fill="#4d4d4d" cx="51.5" cy="191.25"/><circle r="0.25" fill="#4d4d4d" cx="59.0" cy="191.25"/><circle r="0.25" fill="#4d4d4d" cx="66.5" cy="191.25"/><circle r="0.25" fill="#4d4d4d" cx="74.0" cy="191.25"/><circle r="0.25" fill="#4d4d4d" cx="81.5" cy="191.25"/><circle r="0.25" fill="#4d4d4d" cx="89.0" cy="191.25"/><circle r="0.25" fill="#4d4d4d" cx="96.5" cy="191.25"/><circle r="0.25" fill="#4d4d4d" cx="104.0" cy="191.25"/><circle r="0.25" fill="#4d4d4d" cx="111.5" cy="191.25"/><circle r="0.25" fill="#4d4d4d" cx="119.0" cy="191.25"/><circle r="0.25" fill="#4d4d4d" cx="126.5" cy="191.25"/><circle r="0.25" fill="#4d4d4d" cx="134.0" cy="191.25"/><circle r="0.25" fill="#4d4d4d" cx="141.5" cy="191.25"/><circle r="0.25" fill="#4d4d4d" cx="6.5" cy="198.75"/><circle r="0.25" fill="#4d4d4d" cx="14.0" cy="198.75"/><circle r="0.25" fill="#4d4d4d" cx="21.5" cy="198.75"/><circle r="0.25" fill="#4d4d4d" cx="29.0" cy="198.75"/><circle r="0.25" fill="#4d4d4d" cx="36.5" cy="198.75"/><circle r="0.25" fill="#4d4d4d" cx="44.0" cy="198.75"/><circle r="0.25" fill="#4d4d4d" cx="51.5" cy="198.75"/><circle r="0.25" fill="#4d4d4d" cx="59.0" cy="198.75"/><circle r="0.25" fill="#4d4d4d" cx="66.5" cy="198.75"/><circle r="0.25" fill="#4d4d4d" cx="74.0" cy="198.75"/><circle r="0.25" fill="#4d4d4d" cx="81.5" cy="198.75"/><circle r="0.25" fill="#4d4d4d" cx="89.0" cy="198.75"/><circle r="0.25" fill="#4d4d4d" cx="96.5" cy="198.75"/><circle r="0.25" fill="#4d4d4d" cx="104.0" cy="198.75"/><circle r="0.25" fill="#4d4d4d" cx="111.5" cy="198.75"/><circle r="0.25" fill="#4d4d4d" cx="119.0" cy="198.75"/><circle r="0.25" fill="#4d4d4d" cx="126.5" cy="198.75"/><circle r="0.25" fill="#4d4d4d" cx="134.0" cy="198.75"/><circle r="0.25" fill="#4d4d4d" cx="141.5" cy="198.75"/><circle r="0.25" fill="#4d4d4d" cx="6.5" cy="206.25"/><circle r="0.25" fill="#4d4d4d" cx="14.0" cy="206.25"/><circle r="0.25" fill="#4d4d4d" cx="21.5" cy="206.25"/><circle r="0.25" fill="#4d4d4d" cx="29.0" cy="206.25"/><circle r="0.25" fill="#4d4d4d" cx="36.5" cy="206.25"/><circle r="0.25" fill="#4d4d4d" cx="44.0" cy="206.25"/><circle r="0.25" fill="#4d4d4d" cx="51.5" cy="206.25"/><circle r="0.25" fill="#4d4d4d" cx="59.0" cy="206.25"/><circle r="0.25" fill="#4d4d4d" cx="66.5" cy="206.25"/><circle r="0.25" fill="#4d4d4d" cx="74.0" cy="206.25"/><circle r="0.25" fill="#4d4d4d" cx="81.5" cy="206.25"/><circle r="0.25" fill="#4d4d4d" cx="89.0" cy="206.25"/><circle r="0.25" fill="#4d4d4d" cx="96.5" cy="206.25"/><circle r="0.25" fill="#4d4d4d" cx="104.0" cy="206.25"/><circle r="0.25" fill="#4d4d4d" cx="111.5" cy="206.25"/><circle r="0.25" fill="#4d4d4d" cx="119.0" cy="206.25"/><circle r="0.25" fill="#4d4d4d" cx="126.5" cy="206.25"/><circle r="0.25" fill="#4d4d4d" cx="134.0" cy="206.25"/><circle r="0.25" fill="#4d4d4d" cx="141.5" cy="206.25"/><circle r="0.25" fill="#4d4d4d" cx="134.0" cy="206.25"/><circle r="0.25" fill="#4d4d4d" cx="134.0" cy="203.75"/><circle r="0.25" fill="#4d4d4d" cx="134.0" cy="201.25"/><circle r="0.25" fill="#4d4d4d" cx="134.0" cy="198.75"/><circle r="0.25" fill="#4d4d4d" cx="134.0" cy="196.25"/><circle r="0.25" fill="#4d4d4d" cx="134.0" cy="193.75"/><circle r="0.25" fill="#4d4d4d" cx="134.0" cy="191.25"/><circle r="0.25" fill="#4d4d4d" cx="134.0" cy="188.75"/><circle r="0.25" fill="#4d4d4d" cx="134.0" cy="186.25"/><circle r="0.25" fill="#4d4d4d" cx="134.0" cy="183.75"/><circle r="0.25" fill="#4d4d4d" cx="14.0" cy="3.75"/><circle r="0.25" fill="#4d4d4d" cx="14.0" cy="6.25"/><circle r="0.25" fill="#4d4d4d" cx="14.0" cy="8.75"/><circle r="0.25" fill="#4d4d4d" cx="14.0" cy="11.25"/><circle r="0.25" fill="#4d4d4d" cx="14.0" cy="13.75"/><circle r="0.25" fill="#4d4d4d" cx="14.0" cy="16.25"/><circle r="0.25" fill="#4d4d4d" cx="14.0" cy="18.75"/><circle r="0.25" fill="#4d4d4d" cx="14.0" cy="21.25"/><circle r="0.25" fill="#4d4d4d" cx="14.0" cy="23.75"/><circle r="0.25" fill="#4d4d4d" cx="14.0" cy="26.25"/></svg>