<?xml version="1.0" encoding="UTF-8" standalone="no"?>
<!-- Generator: Adobe Illustrator 16.0.0, SVG Export Plug-In . SVG Version: 6.00 Build 0)  -->

<svg
   xmlns:dc="http://purl.org/dc/elements/1.1/"
   xmlns:cc="http://creativecommons.org/ns#"
   xmlns:rdf="http://www.w3.org/1999/02/22-rdf-syntax-ns#"
   xmlns:svg="http://www.w3.org/2000/svg"
   xmlns="http://www.w3.org/2000/svg"
   xmlns:sodipodi="http://sodipodi.sourceforge.net/DTD/sodipodi-0.dtd"
   xmlns:inkscape="http://www.inkscape.org/namespaces/inkscape"
   version="1.1"
   id="Capa_1"
   x="0px"
   y="0px"
   width="276.33801"
   height="300"
   viewBox="0 0 276.338 299.99999"
   xml:space="preserve"
   sodipodi:docname="calendar-daily-1.svg"
   inkscape:version="0.92.5 (2060ec1f9f, 2020-04-08)"
   inkscape:export-filename="/home/mik/Dokumente/Sonstiges_2020/bullet_journal_vorlagen/images/calendar-daily-1.png"
   inkscape:export-xdpi="96"
   inkscape:export-ydpi="96"><metadata
   id="metadata51"><rdf:RDF><cc:Work
       rdf:about=""><dc:format>image/svg+xml</dc:format><dc:type
         rdf:resource="http://purl.org/dc/dcmitype/StillImage" /><dc:title /></cc:Work></rdf:RDF></metadata><defs
   id="defs49" /><sodipodi:namedview
   pagecolor="#ffffff"
   bordercolor="#666666"
   borderopacity="1"
   objecttolerance="10"
   gridtolerance="10"
   guidetolerance="10"
   inkscape:pageopacity="0"
   inkscape:pageshadow="2"
   inkscape:window-width="2488"
   inkscape:window-height="1376"
   id="namedview47"
   showgrid="false"
   inkscape:zoom="0.76637477"
   inkscape:cx="-517.16835"
   inkscape:cy="105.2101"
   inkscape:window-x="72"
   inkscape:window-y="27"
   inkscape:window-maximized="1"
   inkscape:current-layer="g3811"><inkscape:grid
     type="xygrid"
     id="grid3813" /></sodipodi:namedview>
<g
   id="g14"
   transform="translate(0,23.661987)">
	<g
   id="g12">
		
		
		
		
		
	<text
   xml:space="preserve"
   style="font-style:normal;font-weight:normal;font-size:40px;line-height:1.25;font-family:sans-serif;letter-spacing:0px;word-spacing:0px;fill:#000000;fill-opacity:1;stroke:none"
   x="-116.02506"
   y="86.269127"
   id="text3758"><tspan
     sodipodi:role="line"
     id="tspan3756"
     x="-116.02506"
     y="86.269127"
     style="font-style:normal;font-variant:normal;font-weight:bold;font-stretch:normal;font-size:96px;font-family:'Nimbus Sans';-inkscape-font-specification:'Nimbus Sans, Bold';font-variant-ligatures:normal;font-variant-caps:normal;font-variant-numeric:normal;font-feature-settings:normal;text-align:start;writing-mode:lr-tb;text-anchor:start">15</tspan></text>


<text
   xml:space="preserve"
   style="font-style:normal;font-weight:normal;font-size:40px;line-height:1.25;font-family:sans-serif;letter-spacing:0px;word-spacing:0px;fill:#000000;fill-opacity:1;stroke:none"
   x="-104.59187"
   y="167.63701"
   id="text3758-9"><tspan
     sodipodi:role="line"
     id="tspan3756-4"
     x="-104.59187"
     y="167.63701"
     style="font-style:normal;font-variant:normal;font-weight:bold;font-stretch:normal;font-size:96px;font-family:'Nimbus Sans';-inkscape-font-specification:'Nimbus Sans, Bold';font-variant-ligatures:normal;font-variant-caps:normal;font-variant-numeric:normal;font-feature-settings:normal;text-align:start;writing-mode:lr-tb;text-anchor:start">31</tspan></text>


<g
   id="g3811"
   transform="translate(0,-11.830987)"><g
   id="g3803"><path
     inkscape:connector-curvature="0"
     d="m 267.207,99.838 v -37.64 -4.123 c 0,-21.569 -19.036,-39.141 -42.689,-39.748 v 0.005 9.549 0.009 9.6 0.019 5.454 c 0,13.999 -11.388,25.387 -25.384,25.387 -13.997,0 -25.385,-11.388 -25.385,-25.387 v -5.582 -9.558 -9.558 h -71.98 v 9.558 9.558 5.582 c 0,13.999 -11.388,25.387 -25.386,25.387 -13.997,0 -25.384,-11.388 -25.384,-25.387 V 37.591 37.558 27.927 27.918 18.37 18.36 C 27.737,19.345 9.131,36.756 9.131,58.07 v 4.123 37.64 132.573 c 0,24.218 19.709,43.932 43.929,43.932 h 170.216 c 24.217,0 43.927,-19.714 43.927,-43.932 V 99.838 Z M 248.09,232.411 c 0,13.684 -11.131,24.811 -24.814,24.811 H 53.065 c -13.682,0 -24.812,-11.127 -24.812,-24.811 V 99.838 H 248.09 Z"
     id="path2" /><path
     inkscape:connector-curvature="0"
     d="m 65.339,11.049 v 7.215 9.558 9.558 5.582 c 0,6.104 4.945,11.049 11.049,11.049 6.102,0 11.049,-4.945 11.049,-11.049 V 37.38 27.822 18.264 11.049 C 87.438,4.945 82.491,0 76.389,0 70.284,0.005 65.339,4.95 65.339,11.049 Z"
     id="path4" /><path
     inkscape:connector-curvature="0"
     d="m 199.137,0.005 c -6.104,0 -11.051,4.945 -11.051,11.049 v 7.215 9.558 9.558 5.582 c 0,6.104 4.946,11.049 11.051,11.049 6.105,0 11.052,-4.945 11.052,-11.049 V 37.38 27.822 18.264 11.049 C 210.18,4.95 205.238,0.005 199.137,0.005 Z"
     id="path6" /></g><text
   id="text3758-9-6"
   y="228.75826"
   x="133.80963"
   style="font-style:normal;font-variant:normal;font-weight:normal;font-stretch:normal;font-size:192px;line-height:1.25;font-family:Keraleeyam;-inkscape-font-specification:'Keraleeyam, Normal';font-variant-ligatures:normal;font-variant-caps:normal;font-variant-numeric:normal;font-feature-settings:normal;text-align:center;letter-spacing:5px;word-spacing:0px;writing-mode:lr-tb;text-anchor:middle;fill:#000000;fill-opacity:1;stroke:#000000;stroke-width:2"
   xml:space="preserve"><tspan
     style="font-style:normal;font-variant:normal;font-weight:normal;font-stretch:normal;font-size:192px;font-family:Keraleeyam;-inkscape-font-specification:'Keraleeyam, Normal';font-variant-ligatures:normal;font-variant-caps:normal;font-variant-numeric:normal;font-feature-settings:normal;text-align:center;letter-spacing:5px;writing-mode:lr-tb;text-anchor:middle;fill:#000000;stroke:#000000;stroke-width:2"
     y="228.75826"
     x="136.30963"
     id="tspan3756-4-9"
     sodipodi:role="line">1</tspan></text>


</g></g>
</g>
<g
   id="g16"
   transform="translate(0,23.661987)">
</g>
<g
   id="g18"
   transform="translate(0,23.661987)">
</g>
<g
   id="g20"
   transform="translate(0,23.661987)">
</g>
<g
   id="g22"
   transform="translate(0,23.661987)">
</g>
<g
   id="g24"
   transform="translate(0,23.661987)">
</g>
<g
   id="g26"
   transform="translate(0,23.661987)">
</g>
<g
   id="g28"
   transform="translate(0,23.661987)">
</g>
<g
   id="g30"
   transform="translate(0,23.661987)">
</g>
<g
   id="g32"
   transform="translate(0,23.661987)">
</g>
<g
   id="g34"
   transform="translate(0,23.661987)">
</g>
<g
   id="g36"
   transform="translate(0,23.661987)">
</g>
<g
   id="g38"
   transform="translate(0,23.661987)">
</g>
<g
   id="g40"
   transform="translate(0,23.661987)">
</g>
<g
   id="g42"
   transform="translate(0,23.661987)">
</g>
<g
   id="g44"
   transform="translate(0,23.661987)">
</g>
</svg>