<?xml version="1.0" ?><svg xmlns="http://www.w3.org/2000/svg" width="148mm" height="210mm" viewBox="0 0 148 210" version="1.1">
<circle r="0.25" fill="#4d4d4d" cx="6.5" cy="3.75"/><circle r="0.25" fill="#4d4d4d" cx="14.0" cy="3.75"/><circle r="0.25" fill="#4d4d4d" cx="21.5" cy="3.75"/><circle r="0.25" fill="#4d4d4d" cx="29.0" cy="3.75"/><circle r="0.25" fill="#4d4d4d" cx="36.5" cy="3.75"/><circle r="0.25" fill="#4d4d4d" cx="44.0" cy="3.75"/><circle r="0.25" fill="#4d4d4d" cx="51.5" cy="3.75"/><circle r="0.25" fill="#4d4d4d" cx="59.0" cy="3.75"/><circle r="0.25" fill="#4d4d4d" cx="66.5" cy="3.75"/><circle r="0.25" fill="#4d4d4d" cx="74.0" cy="3.75"/><circle r="0.25" fill="#4d4d4d" cx="81.5" cy="3.75"/><circle r="0.25" fill="#4d4d4d" cx="89.0" cy="3.75"/><circle r="0.25" fill="#4d4d4d" cx="96.5" cy="3.75"/><circle r="0.25" fill="#4d4d4d" cx="104.0" cy="3.75"/><circle r="0.25" fill="#4d4d4d" cx="111.5" cy="3.75"/><circle r="0.25" fill="#4d4d4d" cx="119.0" cy="3.75"/><circle r="0.25" fill="#4d4d4d" cx="126.5" cy="3.75"/><circle r="0.25" fill="#4d4d4d" cx="134.0" cy="3.75"/><circle r="0.25" fill="#4d4d4d" cx="141.5" cy="3.75"/><circle r="0.25" fill="#4d4d4d" cx="6.5" cy="11.25"/><circle r="0.25" fill="#4d4d4d" cx="14.0" cy="11.25"/><circle r="0.25" fill="#4d4d4d" cx="21.5" cy="11.25"/><circle r="0.25" fill="#4d4d4d" cx="29.0" cy="11.25"/><circle r="0.25" fill="#4d4d4d" cx="36.5" cy="11.25"/><circle r="0.25" fill="#4d4d4d" cx="44.0" cy="11.25"/><circle r="0.25" fill="#4d4d4d" cx="51.5" cy="11.25"/><circle r="0.25" fill="#4d4d4d" cx="59.0" cy="11.25"/><circle r="0.25" fill="#4d4d4d" cx="66.5" cy="11.25"/><circle r="0.25" fill="#4d4d4d" cx="74.0" cy="11.25"/><circle r="0.25" fill="#4d4d4d" cx="81.5" cy="11.25"/><circle r="0.25" fill="#4d4d4d" cx="89.0" cy="11.25"/><circle r="0.25" fill="#4d4d4d" cx="96.5" cy="11.25"/><circle r="0.25" fill="#4d4d4d" cx="104.0" cy="11.25"/><circle r="0.25" fill="#4d4d4d" cx="111.5" cy="11.25"/><circle r="0.25" fill="#4d4d4d" cx="119.0" cy="11.25"/><circle r="0.25" fill="#4d4d4d" cx="126.5" cy="11.25"/><circle r="0.25" fill="#4d4d4d" cx="134.0" cy="11.25"/><circle r="0.25" fill="#4d4d4d" cx="141.5" cy="11.25"/><circle r="0.25" fill="#4d4d4d" cx="6.5" cy="18.75"/><circle r="0.25" fill="#4d4d4d" cx="14.0" cy="18.75"/><circle r="0.25" fill="#4d4d4d" cx="21.5" cy="18.75"/><circle r="0.25" fill="#4d4d4d" cx="29.0" cy="18.75"/><circle r="0.25" fill="#4d4d4d" cx="36.5" cy="18.75"/><circle r="0.25" fill="#4d4d4d" cx="44.0" cy="18.75"/><circle r="0.25" fill="#4d4d4d" cx="51.5" cy="18.75"/><circle r="0.25" fill="#4d4d4d" cx="59.0" cy="18.75"/><circle r="0.25" fill="#4d4d4d" cx="66.5" cy="18.75"/><circle r="0.25" fill="#4d4d4d" cx="74.0" cy="18.75"/><circle r="0.25" fill="#4d4d4d" cx="81.5" cy="18.75"/><circle r="0.25" fill="#4d4d4d" cx="89.0" cy="18.75"/><circle r="0.25" fill="#4d4d4d" cx="96.5" cy="18.75"/><circle r="0.25" fill="#4d4d4d" cx="104.0" cy="18.75"/><circle r="0.25" fill="#4d4d4d" cx="111.5" cy="18.75"/><circle r="0.25" fill="#4d4d4d" cx="119.0" cy="18.75"/><circle r="0.25" fill="#4d4d4d" cx="126.5" cy="18.75"/><circle r="0.25" fill="#4d4d4d" cx="134.0" cy="18.75"/><circle r="0.25" fill="#4d4d4d" cx="141.5" cy="18.75"/><circle r="0.25" fill="#4d4d4d" cx="6.5" cy="26.25"/><circle r="0.25" fill="#4d4d4d" cx="14.0" cy="26.25"/><circle r="0.25" fill="#4d4d4d" cx="21.5" cy="26.25"/><circle r="0.25" fill="#4d4d4d" cx="29.0" cy="26.25"/><circle r="0.25" fill="#4d4d4d" cx="36.5" cy="26.25"/><circle r="0.25" fill="#4d4d4d" cx="44.0" cy="26.25"/><circle r="0.25" fill="#4d4d4d" cx="51.5" cy="26.25"/><circle r="0.25" fill="#4d4d4d" cx="59.0" cy="26.25"/><circle r="0.25" fill="#4d4d4d" cx="66.5" cy="26.25"/><circle r="0.25" fill="#4d4d4d" cx="74.0" cy="26.25"/><circle r="0.25" fill="#4d4d4d" cx="81.5" cy="26.25"/><circle r="0.25" fill="#4d4d4d" cx="89.0" cy="26.25"/><circle r="0.25" fill="#4d4d4d" cx="96.5" cy="26.25"/><circle r="0.25" fill="#4d4d4d" cx="104.0" cy="26.25"/><circle r="0.25" fill="#4d4d4d" cx="111.5" cy="26.25"/><circle r="0.25" fill="#4d4d4d" cx="119.0" cy="26.25"/><circle r="0.25" fill="#4d4d4d" cx="126.5" cy="26.25"/><circle r="0.25" fill="#4d4d4d" cx="134.0" cy="26.25"/><circle r="0.25" fill="#4d4d4d" cx="141.5" cy="26.25"/><circle r="0.25" fill="#4d4d4d" cx="6.5" cy="33.75"/><circle r="0.25" fill="#4d4d4d" cx="14.0" cy="33.75"/><circle r="0.25" fill="#4d4d4d" cx="21.5" cy="33.75"/><circle r="0.25" fill="#4d4d4d" cx="29.0" cy="33.75"/><circle r="0.25" fill="#4d4d4d" cx="36.5" cy="33.75"/><circle r="0.25" fill="#4d4d4d" cx="44.0" cy="33.75"/><circle r="0.25" fill="#4d4d4d" cx="51.5" cy="33.75"/><circle r="0.25" fill="#4d4d4d" cx="59.0" cy="33.75"/><circle r="0.25" fill="#4d4d4d" cx="66.5" cy="33.75"/><circle r="0.25" fill="#4d4d4d" cx="74.0" cy="33.75"/><circle r="0.25" fill="#4d4d4d" cx="81.5" cy="33.75"/><circle r="0.25" fill="#4d4d4d" cx="89.0" cy="33.75"/><circle r="0.25" fill="#4d4d4d" cx="96.5" cy="33.75"/><circle r="0.25" fill="#4d4d4d" cx="104.0" cy="33.75"/><circle r="0.25" fill="#4d4d4d" cx="111.5" cy="33.75"/><circle r="0.25" fill="#4d4d4d" cx="119.0" cy="33.75"/><circle r="0.25" fill="#4d4d4d" cx="126.5" cy="33.75"/><circle r="0.25" fill="#4d4d4d" cx="134.0" cy="33.75"/><circle r="0.25" fill="#4d4d4d" cx="141.5" cy="33.75"/><circle r="0.25" fill="#4d4d4d" cx="6.5" cy="41.25"/><circle r="0.25" fill="#4d4d4d" cx="14.0" cy="41.25"/><circle r="0.25" fill="#4d4d4d" cx="21.5" cy="41.25"/><circle r="0.25" fill="#4d4d4d" cx="29.0" cy="41.25"/><circle r="0.25" fill="#4d4d4d" cx="36.5" cy="41.25"/><circle r="0.25" fill="#4d4d4d" cx="44.0" cy="41.25"/><circle r="0.25" fill="#4d4d4d" cx="51.5" cy="41.25"/><circle r="0.25" fill="#4d4d4d" cx="59.0" cy="41.25"/><circle r="0.25" fill="#4d4d4d" cx="66.5" cy="41.25"/><circle r="0.25" fill="#4d4d4d" cx="74.0" cy="41.25"/><circle r="0.25" fill="#4d4d4d" cx="81.5" cy="41.25"/><circle r="0.25" fill="#4d4d4d" cx="89.0" cy="41.25"/><circle r="0.25" fill="#4d4d4d" cx="96.5" cy="41.25"/><circle r="0.25" fill="#4d4d4d" cx="104.0" cy="41.25"/><circle r="0.25" fill="#4d4d4d" cx="111.5" cy="41.25"/><circle r="0.25" fill="#4d4d4d" cx="119.0" cy="41.25"/><circle r="0.25" fill="#4d4d4d" cx="126.5" cy="41.25"/><circle r="0.25" fill="#4d4d4d" cx="134.0" cy="41.25"/><circle r="0.25" fill="#4d4d4d" cx="141.5" cy="41.25"/><circle r="0.25" fill="#4d4d4d" cx="6.5" cy="48.75"/><circle r="0.25" fill="#4d4d4d" cx="14.0" cy="48.75"/><circle r="0.25" fill="#4d4d4d" cx="21.5" cy="48.75"/><circle r="0.25" fill="#4d4d4d" cx="29.0" cy="48.75"/><circle r="0.25" fill="#4d4d4d" cx="36.5" cy="48.75"/><circle r="0.25" fill="#4d4d4d" cx="44.0" cy="48.75"/><circle r="0.25" fill="#4d4d4d" cx="51.5" cy="48.75"/><circle r="0.25" fill="#4d4d4d" cx="59.0" cy="48.75"/><circle r="0.25" fill="#4d4d4d" cx="66.5" cy="48.75"/><circle r="0.25" fill="#4d4d4d" cx="74.0" cy="48.75"/><circle r="0.25" fill="#4d4d4d" cx="81.5" cy="48.75"/><circle r="0.25" fill="#4d4d4d" cx="89.0" cy="48.75"/><circle r="0.25" fill="#4d4d4d" cx="96.5" cy="48.75"/><circle r="0.25" fill="#4d4d4d" cx="104.0" cy="48.75"/><circle r="0.25" fill="#4d4d4d" cx="111.5" cy="48.75"/><circle r="0.25" fill="#4d4d4d" cx="119.0" cy="48.75"/><circle r="0.25" fill="#4d4d4d" cx="126.5" cy="48.75"/><circle r="0.25" fill="#4d4d4d" cx="134.0" cy="48.75"/><circle r="0.25" fill="#4d4d4d" cx="141.5" cy="48.75"/><circle r="0.25" fill="#4d4d4d" cx="6.5" cy="56.25"/><circle r="0.25" fill="#4d4d4d" cx="14.0" cy="56.25"/><circle r="0.25" fill="#4d4d4d" cx="21.5" cy="56.25"/><circle r="0.25" fill="#4d4d4d" cx="29.0" cy="56.25"/><circle r="0.25" fill="#4d4d4d" cx="36.5" cy="56.25"/><circle r="0.25" fill="#4d4d4d" cx="44.0" cy="56.25"/><circle r="0.25" fill="#4d4d4d" cx="51.5" cy="56.25"/><circle r="0.25" fill="#4d4d4d" cx="59.0" cy="56.25"/><circle r="0.25" fill="#4d4d4d" cx="66.5" cy="56.25"/><circle r="0.25" fill="#4d4d4d" cx="74.0" cy="56.25"/><circle r="0.25" fill="#4d4d4d" cx="81.5" cy="56.25"/><circle r="0.25" fill="#4d4d4d" cx="89.0" cy="56.25"/><circle r="0.25" fill="#4d4d4d" cx="96.5" cy="56.25"/><circle r="0.25" fill="#4d4d4d" cx="104.0" cy="56.25"/><circle r="0.25" fill="#4d4d4d" cx="111.5" cy="56.25"/><circle r="0.25" fill="#4d4d4d" cx="119.0" cy="56.25"/><circle r="0.25" fill="#4d4d4d" cx="126.5" cy="56.25"/><circle r="0.25" fill="#4d4d4d" cx="134.0" cy="56.25"/><circle r="0.25" fill="#4d4d4d" cx="141.5" cy="56.25"/><circle r="0.25" fill="#4d4d4d" cx="6.5" cy="63.75"/><circle r="0.25" fill="#4d4d4d" cx="14.0" cy="63.75"/><circle r="0.25" fill="#4d4d4d" cx="21.5" cy="63.75"/><circle r="0.25" fill="#4d4d4d" cx="29.0" cy="63.75"/><circle r="0.25" fill="#4d4d4d" cx="36.5" cy="63.75"/><circle r="0.25" fill="#4d4d4d" cx="44.0" cy="63.75"/><circle r="0.25" fill="#4d4d4d" cx="51.5" cy="63.75"/><circle r="0.25" fill="#4d4d4d" cx="59.0" cy="63.75"/><circle r="0.25" fill="#4d4d4d" cx="66.5" cy="63.75"/><circle r="0.25" fill="#4d4d4d" cx="74.0" cy="63.75"/><circle r="0.25" fill="#4d4d4d" cx="81.5" cy="63.75"/><circle r="0.25" fill="#4d4d4d" cx="89.0" cy="63.75"/><circle r="0.25" fill="#4d4d4d" cx="96.5" cy="63.75"/><circle r="0.25" fill="#4d4d4d" cx="104.0" cy="63.75"/><circle r="0.25" fill="#4d4d4d" cx="111.5" cy="63.75"/><circle r="0.25" fill="#4d4d4d" cx="119.0" cy="63.75"/><circle r="0.25" fill="#4d4d4d" cx="126.5" cy="63.75"/><circle r="0.25" fill="#4d4d4d" cx="134.0" cy="63.75"/><circle r="0.25" fill="#4d4d4d" cx="141.5" cy="63.75"/><circle r="0.25" fill="#4d4d4d" cx="6.5" cy="71.25"/><circle r="0.25" fill="#4d4d4d" cx="14.0" cy="71.25"/><circle r="0.25" fill="#4d4d4d" cx="21.5" cy="71.25"/><circle r="0.25" fill="#4d4d4d" cx="29.0" cy="71.25"/><circle r="0.25" fill="#4d4d4d" cx="36.5" cy="71.25"/><circle r="0.25" fill="#4d4d4d" cx="44.0" cy="71.25"/><circle r="0.25" fill="#4d4d4d" cx="51.5" cy="71.25"/><circle r="0.25" fill="#4d4d4d" cx="59.0" cy="71.25"/><circle r="0.25" fill="#4d4d4d" cx="66.5" cy="71.25"/><circle r="0.25" fill="#4d4d4d" cx="74.0" cy="71.25"/><circle r="0.25" fill="#4d4d4d" cx="81.5" cy="71.25"/><circle r="0.25" fill="#4d4d4d" cx="89.0" cy="71.25"/><circle r="0.25" fill="#4d4d4d" cx="96.5" cy="71.25"/><circle r="0.25" fill="#4d4d4d" cx="104.0" cy="71.25"/><circle r="0.25" fill="#4d4d4d" cx="111.5" cy="71.25"/><circle r="0.25" fill="#4d4d4d" cx="119.0" cy="71.25"/><circle r="0.25" fill="#4d4d4d" cx="126.5" cy="71.25"/><circle r="0.25" fill="#4d4d4d" cx="134.0" cy="71.25"/><circle r="0.25" fill="#4d4d4d" cx="141.5" cy="71.25"/><circle r="0.25" fill="#4d4d4d" cx="6.5" cy="78.75"/><circle r="0.25" fill="#4d4d4d" cx="14.0" cy="78.75"/><circle r="0.25" fill="#4d4d4d" cx="21.5" cy="78.75"/><circle r="0.25" fill="#4d4d4d" cx="29.0" cy="78.75"/><circle r="0.25" fill="#4d4d4d" cx="36.5" cy="78.75"/><circle r="0.25" fill="#4d4d4d" cx="44.0" cy="78.75"/><circle r="0.25" fill="#4d4d4d" cx="51.5" cy="78.75"/><circle r="0.25" fill="#4d4d4d" cx="59.0" cy="78.75"/><circle r="0.25" fill="#4d4d4d" cx="66.5" cy="78.75"/><circle r="0.25" fill="#4d4d4d" cx="74.0" cy="78.75"/><circle r="0.25" fill="#4d4d4d" cx="81.5" cy="78.75"/><circle r="0.25" fill="#4d4d4d" cx="89.0" cy="78.75"/><circle r="0.25" fill="#4d4d4d" cx="96.5" cy="78.75"/><circle r="0.25" fill="#4d4d4d" cx="104.0" cy="78.75"/><circle r="0.25" fill="#4d4d4d" cx="111.5" cy="78.75"/><circle r="0.25" fill="#4d4d4d" cx="119.0" cy="78.75"/><circle r="0.25" fill="#4d4d4d" cx="126.5" cy="78.75"/><circle r="0.25" fill="#4d4d4d" cx="134.0" cy="78.75"/><circle r="0.25" fill="#4d4d4d" cx="141.5" cy="78.75"/><circle r="0.25" fill="#4d4d4d" cx="6.5" cy="86.25"/><circle r="0.25" fill="#4d4d4d" cx="14.0" cy="86.25"/><circle r="0.25" fill="#4d4d4d" cx="21.5" cy="86.25"/><circle r="0.25" fill="#4d4d4d" cx="29.0" cy="86.25"/><circle r="0.25" fill="#4d4d4d" cx="36.5" cy="86.25"/><circle r="0.25" fill="#4d4d4d" cx="44.0" cy="86.25"/><circle r="0.25" fill="#4d4d4d" cx="51.5" cy="86.25"/><circle r="0.25" fill="#4d4d4d" cx="59.0" cy="86.25"/><circle r="0.25" fill="#4d4d4d" cx="66.5" cy="86.25"/><circle r="0.25" fill="#4d4d4d" cx="74.0" cy="86.25"/><circle r="0.25" fill="#4d4d4d" cx="81.5" cy="86.25"/><circle r="0.25" fill="#4d4d4d" cx="89.0" cy="86.25"/><circle r="0.25" fill="#4d4d4d" cx="96.5" cy="86.25"/><circle r="0.25" fill="#4d4d4d" cx="104.0" cy="86.25"/><circle r="0.25" fill="#4d4d4d" cx="111.5" cy="86.25"/><circle r="0.25" fill="#4d4d4d" cx="119.0" cy="86.25"/><circle r="0.25" fill="#4d4d4d" cx="126.5" cy="86.25"/><circle r="0.25" fill="#4d4d4d" cx="134.0" cy="86.25"/><circle r="0.25" fill="#4d4d4d" cx="141.5" cy="86.25"/><circle r="0.25" fill="#4d4d4d" cx="6.5" cy="93.75"/><circle r="0.25" fill="#4d4d4d" cx="14.0" cy="93.75"/><circle r="0.25" fill="#4d4d4d" cx="21.5" cy="93.75"/><circle r="0.25" fill="#4d4d4d" cx="29.0" cy="93.75"/><circle r="0.25" fill="#4d4d4d" cx="36.5" cy="93.75"/><circle r="0.25" fill="#4d4d4d" cx="44.0" cy="93.75"/><circle r="0.25" fill="#4d4d4d" cx="51.5" cy="93.75"/><circle r="0.25" fill="#4d4d4d" cx="59.0" cy="93.75"/><circle r="0.25" fill="#4d4d4d" cx="66.5" cy="93.75"/><circle r="0.25" fill="#4d4d4d" cx="74.0" cy="93.75"/><circle r="0.25" fill="#4d4d4d" cx="81.5" cy="93.75"/><circle r="0.25" fill="#4d4d4d" cx="89.0" cy="93.75"/><circle r="0.25" fill="#4d4d4d" cx="96.5" cy="93.75"/><circle r="0.25" fill="#4d4d4d" cx="104.0" cy="93.75"/><circle r="0.25" fill="#4d4d4d" cx="111.5" cy="93.75"/><circle r="0.25" fill="#4d4d4d" cx="119.0" cy="93.75"/><circle r="0.25" fill="#4d4d4d" cx="126.5" cy="93.75"/><circle r="0.25" fill="#4d4d4d" cx="134.0" cy="93.75"/><circle r="0.25" fill="#4d4d4d" cx="141.5" cy="93.75"/><circle r="0.25" fill="#4d4d4d" cx="6.5" cy="101.25"/><circle r="0.25" fill="#4d4d4d" cx="14.0" cy="101.25"/><circle r="0.25" fill="#4d4d4d" cx="21.5" cy="101.25"/><circle r="0.25" fill="#4d4d4d" cx="29.0" cy="101.25"/><circle r="0.25" fill="#4d4d4d" cx="36.5" cy="101.25"/><circle r="0.25" fill="#4d4d4d" cx="44.0" cy="101.25"/><circle r="0.25" fill="#4d4d4d" cx="51.5" cy="101.25"/><circle r="0.25" fill="#4d4d4d" cx="59.0" cy="101.25"/><circle r="0.25" fill="#4d4d4d" cx="66.5" cy="101.25"/><circle r="0.25" fill="#4d4d4d" cx="74.0" cy="101.25"/><circle r="0.25" fill="#4d4d4d" cx="81.5" cy="101.25"/><circle r="0.25" fill="#4d4d4d" cx="89.0" cy="101.25"/><circle r="0.25" fill="#4d4d4d" cx="96.5" cy="101.25"/><circle r="0.25" fill="#4d4d4d" cx="104.0" cy="101.25"/><circle r="0.25" fill="#4d4d4d" cx="111.5" cy="101.25"/><circle r="0.25" fill="#4d4d4d" cx="119.0" cy="101.25"/><circle r="0.25" fill="#4d4d4d" cx="126.5" cy="101.25"/><circle r="0.25" fill="#4d4d4d" cx="134.0" cy="101.25"/><circle r="0.25" fill="#4d4d4d" cx="141.5" cy="101.25"/><circle r="0.25" fill="#4d4d4d" cx="6.5" cy="108.75"/><circle r="0.25" fill="#4d4d4d" cx="14.0" cy="108.75"/><circle r="0.25" fill="#4d4d4d" cx="21.5" cy="108.75"/><circle r="0.25" fill="#4d4d4d" cx="29.0" cy="108.75"/><circle r="0.25" fill="#4d4d4d" cx="36.5" cy="108.75"/><circle r="0.25" fill="#4d4d4d" cx="44.0" cy="108.75"/><circle r="0.25" fill="#4d4d4d" cx="51.5" cy="108.75"/><circle r="0.25" fill="#4d4d4d" cx="59.0" cy="108.75"/><circle r="0.25" fill="#4d4d4d" cx="66.5" cy="108.75"/><circle r="0.25" fill="#4d4d4d" cx="74.0" cy="108.75"/><circle r="0.25" fill="#4d4d4d" cx="81.5" cy="108.75"/><circle r="0.25" fill="#4d4d4d" cx="89.0" cy="108.75"/><circle r="0.25" fill="#4d4d4d" cx="96.5" cy="108.75"/><circle r="0.25" fill="#4d4d4d" cx="104.0" cy="108.75"/><circle r="0.25" fill="#4d4d4d" cx="111.5" cy="108.75"/><circle r="0.25" fill="#4d4d4d" cx="119.0" cy="108.75"/><circle r="0.25" fill="#4d4d4d" cx="126.5" cy="108.75"/><circle r="0.25" fill="#4d4d4d" cx="134.0" cy="108.75"/><circle r="0.25" fill="#4d4d4d" cx="141.5" cy="108.75"/><circle r="0.25" fill="#4d4d4d" cx="6.5" cy="116.25"/><circle r="0.25" fill="#4d4d4d" cx="14.0" cy="116.25"/><circle r="0.25" fill="#4d4d4d" cx="21.5" cy="116.25"/><circle r="0.25" fill="#4d4d4d" cx="29.0" cy="116.25"/><circle r="0.25" fill="#4d4d4d" cx="36.5" cy="116.25"/><circle r="0.25" fill="#4d4d4d" cx="44.0" cy="116.25"/><circle r="0.25" fill="#4d4d4d" cx="51.5" cy="116.25"/><circle r="0.25" fill="#4d4d4d" cx="59.0" cy="116.25"/><circle r="0.25" fill="#4d4d4d" cx="66.5" cy="116.25"/><circle r="0.25" fill="#4d4d4d" cx="74.0" cy="116.25"/><circle r="0.25" fill="#4d4d4d" cx="81.5" cy="116.25"/><circle r="0.25" fill="#4d4d4d" cx="89.0" cy="116.25"/><circle r="0.25" fill="#4d4d4d" cx="96.5" cy="116.25"/><circle r="0.25" fill="#4d4d4d" cx="104.0" cy="116.25"/><circle r="0.25" fill="#4d4d4d" cx="111.5" cy="116.25"/><circle r="0.25" fill="#4d4d4d" cx="119.0" cy="116.25"/><circle r="0.25" fill="#4d4d4d" cx="126.5" cy="116.25"/><circle r="0.25" fill="#4d4d4d" cx="134.0" cy="116.25"/><circle r="0.25" fill="#4d4d4d" cx="141.5" cy="116.25"/><circle r="0.25" fill="#4d4d4d" cx="6.5" cy="123.75"/><circle r="0.25" fill="#4d4d4d" cx="14.0" cy="123.75"/><circle r="0.25" fill="#4d4d4d" cx="21.5" cy="123.75"/><circle r="0.25" fill="#4d4d4d" cx="29.0" cy="123.75"/><circle r="0.25" fill="#4d4d4d" cx="36.5" cy="123.75"/><circle r="0.25" fill="#4d4d4d" cx="44.0" cy="123.75"/><circle r="0.25" fill="#4d4d4d" cx="51.5" cy="123.75"/><circle r="0.25" fill="#4d4d4d" cx="59.0" cy="123.75"/><circle r="0.25" fill="#4d4d4d" cx="66.5" cy="123.75"/><circle r="0.25" fill="#4d4d4d" cx="74.0" cy="123.75"/><circle r="0.25" fill="#4d4d4d" cx="81.5" cy="123.75"/><circle r="0.25" fill="#4d4d4d" cx="89.0" cy="123.75"/><circle r="0.25" fill="#4d4d4d" cx="96.5" cy="123.75"/><circle r="0.25" fill="#4d4d4d" cx="104.0" cy="123.75"/><circle r="0.25" fill="#4d4d4d" cx="111.5" cy="123.75"/><circle r="0.25" fill="#4d4d4d" cx="119.0" cy="123.75"/><circle r="0.25" fill="#4d4d4d" cx="126.5" cy="123.75"/><circle r="0.25" fill="#4d4d4d" cx="134.0" cy="123.75"/><circle r="0.25" fill="#4d4d4d" cx="141.5" cy="123.75"/><circle r="0.25" fill="#4d4d4d" cx="6.5" cy="131.25"/><circle r="0.25" fill="#4d4d4d" cx="14.0" cy="131.25"/><circle r="0.25" fill="#4d4d4d" cx="21.5" cy="131.25"/><circle r="0.25" fill="#4d4d4d" cx="29.0" cy="131.25"/><circle r="0.25" fill="#4d4d4d" cx="36.5" cy="131.25"/><circle r="0.25" fill="#4d4d4d" cx="44.0" cy="131.25"/><circle r="0.25" fill="#4d4d4d" cx="51.5" cy="131.25"/><circle r="0.25" fill="#4d4d4d" cx="59.0" cy="131.25"/><circle r="0.25" fill="#4d4d4d" cx="66.5" cy="131.25"/><circle r="0.25" fill="#4d4d4d" cx="74.0" cy="131.25"/><circle r="0.25" fill="#4d4d4d" cx="81.5" cy="131.25"/><circle r="0.25" fill="#4d4d4d" cx="89.0" cy="131.25"/><circle r="0.25" fill="#4d4d4d" cx="96.5" cy="131.25"/><circle r="0.25" fill="#4d4d4d" cx="104.0" cy="131.25"/><circle r="0.25" fill="#4d4d4d" cx="111.5" cy="131.25"/><circle r="0.25" fill="#4d4d4d" cx="119.0" cy="131.25"/><circle r="0.25" fill="#4d4d4d" cx="126.5" cy="131.25"/><circle r="0.25" fill="#4d4d4d" cx="134.0" cy="131.25"/><circle r="0.25" fill="#4d4d4d" cx="141.5" cy="131.25"/><circle r="0.25" fill="#4d4d4d" cx="6.5" cy="138.75"/><circle r="0.25" fill="#4d4d4d" cx="14.0" cy="138.75"/><circle r="0.25" fill="#4d4d4d" cx="21.5" cy="138.75"/><circle r="0.25" fill="#4d4d4d" cx="29.0" cy="138.75"/><circle r="0.25" fill="#4d4d4d" cx="36.5" cy="138.75"/><circle r="0.25" fill="#4d4d4d" cx="44.0" cy="138.75"/><circle r="0.25" fill="#4d4d4d" cx="51.5" cy="138.75"/><circle r="0.25" fill="#4d4d4d" cx="59.0" cy="138.75"/><circle r="0.25" fill="#4d4d4d" cx="66.5" cy="138.75"/><circle r="0.25" fill="#4d4d4d" cx="74.0" cy="138.75"/><circle r="0.25" fill="#4d4d4d" cx="81.5" cy="138.75"/><circle r="0.25" fill="#4d4d4d" cx="89.0" cy="138.75"/><circle r="0.25" fill="#4d4d4d" cx="96.5" cy="138.75"/><circle r="0.25" fill="#4d4d4d" cx="104.0" cy="138.75"/><circle r="0.25" fill="#4d4d4d" cx="111.5" cy="138.75"/><circle r="0.25" fill="#4d4d4d" cx="119.0" cy="138.75"/><circle r="0.25" fill="#4d4d4d" cx="126.5" cy="138.75"/><circle r="0.25" fill="#4d4d4d" cx="134.0" cy="138.75"/><circle r="0.25" fill="#4d4d4d" cx="141.5" cy="138.75"/><circle r="0.25" fill="#4d4d4d" cx="6.5" cy="146.25"/><circle r="0.25" fill="#4d4d4d" cx="14.0" cy="146.25"/><circle r="0.25" fill="#4d4d4d" cx="21.5" cy="146.25"/><circle r="0.25" fill="#4d4d4d" cx="29.0" cy="146.25"/><circle r="0.25" fill="#4d4d4d" cx="36.5" cy="146.25"/><circle r="0.25" fill="#4d4d4d" cx="44.0" cy="146.25"/><circle r="0.25" fill="#4d4d4d" cx="51.5" cy="146.25"/><circle r="0.25" fill="#4d4d4d" cx="59.0" cy="146.25"/><circle r="0.25" fill="#4d4d4d" cx="66.5" cy="146.25"/><circle r="0.25" fill="#4d4d4d" cx="74.0" cy="146.25"/><circle r="0.25" fill="#4d4d4d" cx="81.5" cy="146.25"/><circle r="0.25" fill="#4d4d4d" cx="89.0" cy="146.25"/><circle r="0.25" fill="#4d4d4d" cx="96.5" cy="146.25"/><circle r="0.25" fill="#4d4d4d" cx="104.0" cy="146.25"/><circle r="0.25" fill="#4d4d4d" cx="111.5" cy="146.25"/><circle r="0.25" fill="#4d4d4d" cx="119.0" cy="146.25"/><circle r="0.25" fill="#4d4d4d" cx="126.5" cy="146.25"/><circle r="0.25" fill="#4d4d4d" cx="134.0" cy="146.25"/><circle r="0.25" fill="#4d4d4d" cx="141.5" cy="146.25"/><circle r="0.25" fill="#4d4d4d" cx="6.5" cy="153.75"/><circle r="0.25" fill="#4d4d4d" cx="14.0" cy="153.75"/><circle r="0.25" fill="#4d4d4d" cx="21.5" cy="153.75"/><circle r="0.25" fill="#4d4d4d" cx="29.0" cy="153.75"/><circle r="0.25" fill="#4d4d4d" cx="36.5" cy="153.75"/><circle r="0.25" fill="#4d4d4d" cx="44.0" cy="153.75"/><circle r="0.25" fill="#4d4d4d" cx="51.5" cy="153.75"/><circle r="0.25" fill="#4d4d4d" cx="59.0" cy="153.75"/><circle r="0.25" fill="#4d4d4d" cx="66.5" cy="153.75"/><circle r="0.25" fill="#4d4d4d" cx="74.0" cy="153.75"/><circle r="0.25" fill="#4d4d4d" cx="81.5" cy="153.75"/><circle r="0.25" fill="#4d4d4d" cx="89.0" cy="153.75"/><circle r="0.25" fill="#4d4d4d" cx="96.5" cy="153.75"/><circle r="0.25" fill="#4d4d4d" cx="104.0" cy="153.75"/><circle r="0.25" fill="#4d4d4d" cx="111.5" cy="153.75"/><circle r="0.25" fill="#4d4d4d" cx="119.0" cy="153.75"/><circle r="0.25" fill="#4d4d4d" cx="126.5" cy="153.75"/><circle r="0.25" fill="#4d4d4d" cx="134.0" cy="153.75"/><circle r="0.25" fill="#4d4d4d" cx="141.5" cy="153.75"/><circle r="0.25" fill="#4d4d4d" cx="6.5" cy="161.25"/><circle r="0.25" fill="#4d4d4d" cx="14.0" cy="161.25"/><circle r="0.25" fill="#4d4d4d" cx="21.5" cy="161.25"/><circle r="0.25" fill="#4d4d4d" cx="29.0" cy="161.25"/><circle r="0.25" fill="#4d4d4d" cx="36.5" cy="161.25"/><circle r="0.25" fill="#4d4d4d" cx="44.0" cy="161.25"/><circle r="0.25" fill="#4d4d4d" cx="51.5" cy="161.25"/><circle r="0.25" fill="#4d4d4d" cx="59.0" cy="161.25"/><circle r="0.25" fill="#4d4d4d" cx="66.5" cy="161.25"/><circle r="0.25" fill="#4d4d4d" cx="74.0" cy="161.25"/><circle r="0.25" fill="#4d4d4d" cx="81.5" cy="161.25"/><circle r="0.25" fill="#4d4d4d" cx="89.0" cy="161.25"/><circle r="0.25" fill="#4d4d4d" cx="96.5" cy="161.25"/><circle r="0.25" fill="#4d4d4d" cx="104.0" cy="161.25"/><circle r="0.25" fill="#4d4d4d" cx="111.5" cy="161.25"/><circle r="0.25" fill="#4d4d4d" cx="119.0" cy="161.25"/><circle r="0.25" fill="#4d4d4d" cx="126.5" cy="161.25"/><circle r="0.25" fill="#4d4d4d" cx="134.0" cy="161.25"/><circle r="0.25" fill="#4d4d4d" cx="141.5" cy="161.25"/><circle r="0.25" fill="#4d4d4d" cx="6.5" cy="168.75"/><circle r="0.25" fill="#4d4d4d" cx="14.0" cy="168.75"/><circle r="0.25" fill="#4d4d4d" cx="21.5" cy="168.75"/><circle r="0.25" fill="#4d4d4d" cx="29.0" cy="168.75"/><circle r="0.25" fill="#4d4d4d" cx="36.5" cy="168.75"/><circle r="0.25" fill="#4d4d4d" cx="44.0" cy="168.75"/><circle r="0.25" fill="#4d4d4d" cx="51.5" cy="168.75"/><circle r="0.25" fill="#4d4d4d" cx="59.0" cy="168.75"/><circle r="0.25" fill="#4d4d4d" cx="66.5" cy="168.75"/><circle r="0.25" fill="#4d4d4d" cx="74.0" cy="168.75"/><circle r="0.25" fill="#4d4d4d" cx="81.5" cy="168.75"/><circle r="0.25" fill="#4d4d4d" cx="89.0" cy="168.75"/><circle r="0.25" fill="#4d4d4d" cx="96.5" cy="168.75"/><circle r="0.25" fill="#4d4d4d" cx="104.0" cy="168.75"/><circle r="0.25" fill="#4d4d4d" cx="111.5" cy="168.75"/><circle r="0.25" fill="#4d4d4d" cx="119.0" cy="168.75"/><circle r="0.25" fill="#4d4d4d" cx="126.5" cy="168.75"/><circle r="0.25" fill="#4d4d4d" cx="134.0" cy="168.75"/><circle r="0.25" fill="#4d4d4d" cx="141.5" cy="168.75"/><circle r="0.25" fill="#4d4d4d" cx="6.5" cy="176.25"/><circle r="0.25" fill="#4d4d4d" cx="14.0" cy="176.25"/><circle r="0.25" fill="#4d4d4d" cx="21.5" cy="176.25"/><circle r="0.25" fill="#4d4d4d" cx="29.0" cy="176.25"/><circle r="0.25" fill="#4d4d4d" cx="36.5" cy="176.25"/><circle r="0.25" fill="#4d4d4d" cx="44.0" cy="176.25"/><circle r="0.25" fill="#4d4d4d" cx="51.5" cy="176.25"/><circle r="0.25" fill="#4d4d4d" cx="59.0" cy="176.25"/><circle r="0.25" fill="#4d4d4d" cx="66.5" cy="176.25"/><circle r="0.25" fill="#4d4d4d" cx="74.0" cy="176.25"/><circle r="0.25" fill="#4d4d4d" cx="81.5" cy="176.25"/><circle r="0.25" fill="#4d4d4d" cx="89.0" cy="176.25"/><circle r="0.25" fill="#4d4d4d" cx="96.5" cy="176.25"/><circle r="0.25" fill="#4d4d4d" cx="104.0" cy="176.25"/><circle r="0.25" fill="#4d4d4d" cx="111.5" cy="176.25"/><circle r="0.25" fill="#4d4d4d" cx="119.0" cy="176.25"/><circle r="0.25" fill="#4d4d4d" cx="126.5" cy="176.25"/><circle r="0.25" fill="#4d4d4d" cx="134.0" cy="176.25"/><circle r="0.25" fill="#4d4d4d" cx="141.5" cy="176.25"/><circle r="0.25" fill="#4d4d4d" cx="6.5" cy="183.75"/><circle r="0.25" fill="#4d4d4d" cx="14.0" cy="183.75"/><circle r="0.25" fill="#4d4d4d" cx="21.5" cy="183.75"/><circle r="0.25" fill="#4d4d4d" cx="29.0" cy="183.75"/><circle r="0.25" fill="#4d4d4d" cx="36.5" cy="183.75"/><circle r="0.25" fill="#4d4d4d" cx="44.0" cy="183.75"/><circle r="0.25" fill="#4d4d4d" cx="51.5" cy="183.75"/><circle r="0.25" fill="#4d4d4d" cx="59.0" cy="183.75"/><circle r="0.25" fill="#4d4d4d" cx="66.5" cy="183.75"/><circle r="0.25" fill="#4d4d4d" cx="74.0" cy="183.75"/><circle r="0.25" fill="#4d4d4d" cx="81.5" cy="183.75"/><circle r="0.25" fill="#4d4d4d" cx="89.0" cy="183.75"/><circle r="0.25" fill="#4d4d4d" cx="96.5" cy="183.75"/><circle r="0.25" fill="#4d4d4d" cx="104.0" cy="183.75"/><circle r="0.25" fill="#4d4d4d" cx="111.5" cy="183.75"/><circle r="0.25" fill="#4d4d4d" cx="119.0" cy="183.75"/><circle r="0.25" fill="#4d4d4d" cx="126.5" cy="183.75"/><circle r="0.25" fill="#4d4d4d" cx="134.0" cy="183.75"/><circle r="0.25" fill="#4d4d4d" cx="141.5" cy="183.75"/><circle r="0.25" fill="#4d4d4d" cx="6.5" cy="191.25"/><circle r="0.25" fill="#4d4d4d" cx="14.0" cy="191.25"/><circle r="0.25" fill="#4d4d4d" cx="21.5" cy="191.25"/><circle r="0.25" fill="#4d4d4d" cx="29.0" cy="191.25"/><circle r="0.25" fill="#4d4d4d" cx="36.5" cy="191.25"/><circle r="0.25" fill="#4d4d4d" cx="44.0" cy="191.25"/><circle r="0.25" fill="#4d4d4d" cx="51.5" cy="191.25"/><circle r="0.25" fill="#4d4d4d" cx="59.0" cy="191.25"/><circle r="0.25" fill="#4d4d4d" cx="66.5" cy="191.25"/><circle r="0.25" fill="#4d4d4d" cx="74.0" cy="191.25"/><circle r="0.25" fill="#4d4d4d" cx="81.5" cy="191.25"/><circle r="0.25" fill="#4d4d4d" cx="89.0" cy="191.25"/><circle r="0.25" fill="#4d4d4d" cx="96.5" cy="191.25"/><circle r="0.25" fill="#4d4d4d" cx="104.0" cy="191.25"/><circle r="0.25" fill="#4d4d4d" cx="111.5" cy="191.25"/><circle r="0.25" fill="#4d4d4d" cx="119.0" cy="191.25"/><circle r="0.25" fill="#4d4d4d" cx="126.5" cy="191.25"/><circle r="0.25" fill="#4d4d4d" cx="134.0" cy="191.25"/><circle r="0.25" fill="#4d4d4d" cx="141.5" cy="191.25"/><circle r="0.25" fill="#4d4d4d" cx="6.5" cy="198.75"/><circle r="0.25" fill="#4d4d4d" cx="14.0" cy="198.75"/><circle r="0.25" fill="#4d4d4d" cx="21.5" cy="198.75"/><circle r="0.25" fill="#4d4d4d" cx="29.0" cy="198.75"/><circle r="0.25" fill="#4d4d4d" cx="36.5" cy="198.75"/><circle r="0.25" fill="#4d4d4d" cx="44.0" cy="198.75"/><circle r="0.25" fill="#4d4d4d" cx="51.5" cy="198.75"/><circle r="0.25" fill="#4d4d4d" cx="59.0" cy="198.75"/><circle r="0.25" fill="#4d4d4d" cx="66.5" cy="198.75"/><circle r="0.25" fill="#4d4d4d" cx="74.0" cy="198.75"/><circle r="0.25" fill="#4d4d4d" cx="81.5" cy="198.75"/><circle r="0.25" fill="#4d4d4d" cx="89.0" cy="198.75"/><circle r="0.25" fill="#4d4d4d" cx="96.5" cy="198.75"/><circle r="0.25" fill="#4d4d4d" cx="104.0" cy="198.75"/><circle r="0.25" fill="#4d4d4d" cx="111.5" cy="198.75"/><circle r="0.25" fill="#4d4d4d" cx="119.0" cy="198.75"/><circle r="0.25" fill="#4d4d4d" cx="126.5" cy="198.75"/><circle r="0.25" fill="#4d4d4d" cx="134.0" cy="198.75"/><circle r="0.25" fill="#4d4d4d" cx="141.5" cy="198.75"/><circle r="0.25" fill="#4d4d4d" cx="6.5" cy="206.25"/><circle r="0.25" fill="#4d4d4d" cx="14.0" cy="206.25"/><circle r="0.25" fill="#4d4d4d" cx="21.5" cy="206.25"/><circle r="0.25" fill="#4d4d4d" cx="29.0" cy="206.25"/><circle r="0.25" fill="#4d4d4d" cx="36.5" cy="206.25"/><circle r="0.25" fill="#4d4d4d" cx="44.0" cy="206.25"/><circle r="0.25" fill="#4d4d4d" cx="51.5" cy="206.25"/><circle r="0.25" fill="#4d4d4d" cx="59.0" cy="206.25"/><circle r="0.25" fill="#4d4d4d" cx="66.5" cy="206.25"/><circle r="0.25" fill="#4d4d4d" cx="74.0" cy="206.25"/><circle r="0.25" fill="#4d4d4d" cx="81.5" cy="206.25"/><circle r="0.25" fill="#4d4d4d" cx="89.0" cy="206.25"/><circle r="0.25" fill="#4d4d4d" cx="96.5" cy="206.25"/><circle r="0.25" fill="#4d4d4d" cx="104.0" cy="206.25"/><circle r="0.25" fill="#4d4d4d" cx="111.5" cy="206.25"/><circle r="0.25" fill="#4d4d4d" cx="119.0" cy="206.25"/><circle r="0.25" fill="#4d4d4d" cx="126.5" cy="206.25"/><circle r="0.25" fill="#4d4d4d" cx="134.0" cy="206.25"/><circle r="0.25" fill="#4d4d4d" cx="141.5" cy="206.25"/><circle r="0.25" fill="#4d4d4d" cx="4.767599755025529" cy="105.0"/><circle r="0.25" fill="#4d4d4d" cx="7.15492390140396" cy="105.0"/><circle r="0.25" fill="#4d4d4d" cx="9.54224804778239" cy="105.0"/><circle r="0.25" fill="#4d4d4d" cx="11.92957219416082" cy="105.0"/><circle r="0.25" fill="#4d4d4d" cx="14.31689634053925" cy="105.0"/><circle r="0.25" fill="#4d4d4d" cx="16.70422048691768" cy="105.0"/><circle r="0.25" fill="#4d4d4d" cx="19.09154463329611" cy="105.0"/><circle r="0.25" fill="#4d4d4d" cx="21.478868779674542" cy="105.0"/><circle r="0.25" fill="#4d4d4d" cx="23.86619292605297" cy="105.0"/><circle r="0.25" fill="#4d4d4d" cx="26.2535170724314" cy="105.0"/><circle r="0.25" fill="#4d4d4d" cx="28.640841218809832" cy="105.0"/><circle r="0.25" fill="#4d4d4d" cx="31.02816536518826" cy="105.0"/><circle r="0.25" fill="#4d4d4d" cx="33.41548951156669" cy="105.0"/><circle r="0.25" fill="#4d4d4d" cx="35.80281365794512" cy="105.0"/><circle r="0.25" fill="#4d4d4d" cx="38.190137804323555" cy="105.0"/><circle r="0.25" fill="#4d4d4d" cx="40.57746195070198" cy="105.0"/><circle r="0.25" fill="#4d4d4d" cx="42.96478609708041" cy="105.0"/><circle r="0.25" fill="#4d4d4d" cx="45.352110243458846" cy="105.0"/><circle r="0.25" fill="#4d4d4d" cx="47.73943438983727" cy="105.0"/><circle r="0.25" fill="#4d4d4d" cx="50.1267585362157" cy="105.0"/><circle r="0.25" fill="#4d4d4d" cx="52.514082682594136" cy="105.0"/><circle r="0.25" fill="#4d4d4d" cx="54.90140682897256" cy="105.0"/><circle r="0.25" fill="#4d4d4d" cx="57.288730975350994" cy="105.0"/><circle r="0.25" fill="#4d4d4d" cx="59.676055121729426" cy="105.0"/><circle r="0.25" fill="#4d4d4d" cx="62.06337926810785" cy="105.0"/><circle r="0.25" fill="#4d4d4d" cx="64.45070341448628" cy="105.0"/><circle r="0.25" fill="#4d4d4d" cx="66.83802756086472" cy="105.0"/><circle r="0.25" fill="#4d4d4d" cx="69.22535170724315" cy="105.0"/><circle r="0.25" fill="#4d4d4d" cx="71.61267585362158" cy="105.0"/><circle r="0.25" fill="#4d4d4d" cx="74.0" cy="105.0"/><circle r="0.25" fill="#4d4d4d" cx="76.38732414637843" cy="105.0"/><circle r="0.25" fill="#4d4d4d" cx="78.77464829275686" cy="105.0"/><circle r="0.25" fill="#4d4d4d" cx="81.1619724391353" cy="105.0"/><circle r="0.25" fill="#4d4d4d" cx="83.54929658551373" cy="105.0"/><circle r="0.25" fill="#4d4d4d" cx="85.93662073189216" cy="105.0"/><circle r="0.25" fill="#4d4d4d" cx="88.3239448782706" cy="105.0"/><circle r="0.25" fill="#4d4d4d" cx="90.71126902464901" cy="105.0"/><circle r="0.25" fill="#4d4d4d" cx="93.09859317102745" cy="105.0"/><circle r="0.25" fill="#4d4d4d" cx="95.48591731740588" cy="105.0"/><circle r="0.25" fill="#4d4d4d" cx="97.87324146378431" cy="105.0"/><circle r="0.25" fill="#4d4d4d" cx="100.26056561016274" cy="105.0"/><circle r="0.25" fill="#4d4d4d" cx="102.64788975654118" cy="105.0"/><circle r="0.25" fill="#4d4d4d" cx="105.0352139029196" cy="105.0"/><circle r="0.25" fill="#4d4d4d" cx="107.42253804929803" cy="105.0"/><circle r="0.25" fill="#4d4d4d" cx="109.80986219567646" cy="105.0"/><circle r="0.25" fill="#4d4d4d" cx="112.19718634205489" cy="105.0"/><circle r="0.25" fill="#4d4d4d" cx="114.58451048843332" cy="105.0"/><circle r="0.25" fill="#4d4d4d" cx="116.97183463481176" cy="105.0"/><circle r="0.25" fill="#4d4d4d" cx="119.35915878119017" cy="105.0"/><circle r="0.25" fill="#4d4d4d" cx="121.74648292756861" cy="105.0"/><circle r="0.25" fill="#4d4d4d" cx="124.13380707394704" cy="105.0"/><circle r="0.25" fill="#4d4d4d" cx="126.52113122032547" cy="105.0"/><circle r="0.25" fill="#4d4d4d" cx="128.9084553667039" cy="105.0"/><circle r="0.25" fill="#4d4d4d" cx="131.29577951308232" cy="105.0"/><circle r="0.25" fill="#4d4d4d" cx="133.68310365946076" cy="105.0"/><circle r="0.25" fill="#4d4d4d" cx="136.0704278058392" cy="105.0"/><circle r="0.25" fill="#4d4d4d" cx="138.45775195221762" cy="105.0"/><circle r="0.25" fill="#4d4d4d" cx="140.84507609859605" cy="105.0"/><circle r="0.25" fill="#4d4d4d" cx="143.23240024497449" cy="105.0"/><circle r="0.25" fill="#4d4d4d" cx="126.5" cy="206.25"/><circle r="0.25" fill="#4d4d4d" cx="126.5" cy="203.75"/><circle r="0.25" fill="#4d4d4d" cx="126.5" cy="201.25"/><circle r="0.25" fill="#4d4d4d" cx="126.5" cy="198.75"/><circle r="0.25" fill="#4d4d4d" cx="126.5" cy="196.25"/><circle r="0.25" fill="#4d4d4d" cx="126.5" cy="193.75"/><circle r="0.25" fill="#4d4d4d" cx="126.5" cy="191.25"/><circle r="0.25" fill="#4d4d4d" cx="126.5" cy="188.75"/><circle r="0.25" fill="#4d4d4d" cx="126.5" cy="186.25"/><circle r="0.25" fill="#4d4d4d" cx="126.5" cy="183.75"/><circle r="0.25" fill="#4d4d4d" cx="126.5" cy="101.25"/><circle r="0.25" fill="#4d4d4d" cx="126.5" cy="98.75"/><circle r="0.25" fill="#4d4d4d" cx="126.5" cy="96.25"/><circle r="0.25" fill="#4d4d4d" cx="126.5" cy="93.75"/><circle r="0.25" fill="#4d4d4d" cx="126.5" cy="91.25"/><circle r="0.25" fill="#4d4d4d" cx="126.5" cy="88.75"/><circle r="0.25" fill="#4d4d4d" cx="126.5" cy="86.25"/><circle r="0.25" fill="#4d4d4d" cx="126.5" cy="83.75"/><circle r="0.25" fill="#4d4d4d" cx="126.5" cy="81.25"/><circle r="0.25" fill="#4d4d4d" cx="126.5" cy="78.75"/><circle r="0.25" fill="#4d4d4d" cx="4.0" cy="52.5"/><circle r="0.25" fill="#4d4d4d" cx="5.5" cy="52.5"/><circle r="0.25" fill="#4d4d4d" cx="144.0" cy="52.5"/><circle r="0.25" fill="#4d4d4d" cx="142.5" cy="52.5"/><circle r="0.25" fill="#4d4d4d" cx="4.0" cy="157.5"/><circle r="0.25" fill="#4d4d4d" cx="5.5" cy="157.5"/><circle r="0.25" fill="#4d4d4d" cx="144.0" cy="157.5"/><circle r="0.25" fill="#4d4d4d" cx="142.5" cy="157.5"/><circle r="0.25" fill="#4d4d4d" cx="37.0" cy="105.75"/><circle r="0.25" fill="#4d4d4d" cx="37.0" cy="104.25"/><circle r="0.25" fill="#4d4d4d" cx="74.0" cy="105.75"/><circle r="0.25" fill="#4d4d4d" cx="74.0" cy="104.25"/><circle r="0.25" fill="#4d4d4d" cx="111.0" cy="105.75"/><circle r="0.25" fill="#4d4d4d" cx="111.0" cy="104.25"/><circle r="0.25" fill="#4d4d4d" cx="37.0" cy="3.0"/><circle r="0.25" fill="#4d4d4d" cx="37.0" cy="4.5"/><circle r="0.25" fill="#4d4d4d" cx="37.0" cy="207.0"/><circle r="0.25" fill="#4d4d4d" cx="37.0" cy="205.5"/><circle r="0.25" fill="#4d4d4d" cx="74.0" cy="3.0"/><circle r="0.25" fill="#4d4d4d" cx="74.0" cy="4.5"/><circle r="0.25" fill="#4d4d4d" cx="74.0" cy="207.0"/><circle r="0.25" fill="#4d4d4d" cx="74.0" cy="205.5"/><circle r="0.25" fill="#4d4d4d" cx="111.0" cy="3.0"/><circle r="0.25" fill="#4d4d4d" cx="111.0" cy="4.5"/><circle r="0.25" fill="#4d4d4d" cx="111.0" cy="207.0"/><circle r="0.25" fill="#4d4d4d" cx="111.0" cy="205.5"/></svg>