<?xml version="1.0" ?><svg xmlns="http://www.w3.org/2000/svg" width="105mm" height="148mm" viewBox="0 0 105 148" version="1.1">
<circle r="0.25" fill="#4d4d4d" cx="7.5" cy="6.5"/><circle r="0.25" fill="#4d4d4d" cx="15.0" cy="6.5"/><circle r="0.25" fill="#4d4d4d" cx="22.5" cy="6.5"/><circle r="0.25" fill="#4d4d4d" cx="30.0" cy="6.5"/><circle r="0.25" fill="#4d4d4d" cx="37.5" cy="6.5"/><circle r="0.25" fill="#4d4d4d" cx="45.0" cy="6.5"/><circle r="0.25" fill="#4d4d4d" cx="52.5" cy="6.5"/><circle r="0.25" fill="#4d4d4d" cx="60.0" cy="6.5"/><circle r="0.25" fill="#4d4d4d" cx="67.5" cy="6.5"/><circle r="0.25" fill="#4d4d4d" cx="75.0" cy="6.5"/><circle r="0.25" fill="#4d4d4d" cx="82.5" cy="6.5"/><circle r="0.25" fill="#4d4d4d" cx="90.0" cy="6.5"/><circle r="0.25" fill="#4d4d4d" cx="97.5" cy="6.5"/><circle r="0.25" fill="#4d4d4d" cx="7.5" cy="14.0"/><circle r="0.25" fill="#4d4d4d" cx="15.0" cy="14.0"/><circle r="0.25" fill="#4d4d4d" cx="22.5" cy="14.0"/><circle r="0.25" fill="#4d4d4d" cx="30.0" cy="14.0"/><circle r="0.25" fill="#4d4d4d" cx="37.5" cy="14.0"/><circle r="0.25" fill="#4d4d4d" cx="45.0" cy="14.0"/><circle r="0.25" fill="#4d4d4d" cx="52.5" cy="14.0"/><circle r="0.25" fill="#4d4d4d" cx="60.0" cy="14.0"/><circle r="0.25" fill="#4d4d4d" cx="67.5" cy="14.0"/><circle r="0.25" fill="#4d4d4d" cx="75.0" cy="14.0"/><circle r="0.25" fill="#4d4d4d" cx="82.5" cy="14.0"/><circle r="0.25" fill="#4d4d4d" cx="90.0" cy="14.0"/><circle r="0.25" fill="#4d4d4d" cx="97.5" cy="14.0"/><circle r="0.25" fill="#4d4d4d" cx="7.5" cy="21.5"/><circle r="0.25" fill="#4d4d4d" cx="15.0" cy="21.5"/><circle r="0.25" fill="#4d4d4d" cx="22.5" cy="21.5"/><circle r="0.25" fill="#4d4d4d" cx="30.0" cy="21.5"/><circle r="0.25" fill="#4d4d4d" cx="37.5" cy="21.5"/><circle r="0.25" fill="#4d4d4d" cx="45.0" cy="21.5"/><circle r="0.25" fill="#4d4d4d" cx="52.5" cy="21.5"/><circle r="0.25" fill="#4d4d4d" cx="60.0" cy="21.5"/><circle r="0.25" fill="#4d4d4d" cx="67.5" cy="21.5"/><circle r="0.25" fill="#4d4d4d" cx="75.0" cy="21.5"/><circle r="0.25" fill="#4d4d4d" cx="82.5" cy="21.5"/><circle r="0.25" fill="#4d4d4d" cx="90.0" cy="21.5"/><circle r="0.25" fill="#4d4d4d" cx="97.5" cy="21.5"/><circle r="0.25" fill="#4d4d4d" cx="7.5" cy="29.0"/><circle r="0.25" fill="#4d4d4d" cx="15.0" cy="29.0"/><circle r="0.25" fill="#4d4d4d" cx="22.5" cy="29.0"/><circle r="0.25" fill="#4d4d4d" cx="30.0" cy="29.0"/><circle r="0.25" fill="#4d4d4d" cx="37.5" cy="29.0"/><circle r="0.25" fill="#4d4d4d" cx="45.0" cy="29.0"/><circle r="0.25" fill="#4d4d4d" cx="52.5" cy="29.0"/><circle r="0.25" fill="#4d4d4d" cx="60.0" cy="29.0"/><circle r="0.25" fill="#4d4d4d" cx="67.5" cy="29.0"/><circle r="0.25" fill="#4d4d4d" cx="75.0" cy="29.0"/><circle r="0.25" fill="#4d4d4d" cx="82.5" cy="29.0"/><circle r="0.25" fill="#4d4d4d" cx="90.0" cy="29.0"/><circle r="0.25" fill="#4d4d4d" cx="97.5" cy="29.0"/><circle r="0.25" fill="#4d4d4d" cx="7.5" cy="36.5"/><circle r="0.25" fill="#4d4d4d" cx="15.0" cy="36.5"/><circle r="0.25" fill="#4d4d4d" cx="22.5" cy="36.5"/><circle r="0.25" fill="#4d4d4d" cx="30.0" cy="36.5"/><circle r="0.25" fill="#4d4d4d" cx="37.5" cy="36.5"/><circle r="0.25" fill="#4d4d4d" cx="45.0" cy="36.5"/><circle r="0.25" fill="#4d4d4d" cx="52.5" cy="36.5"/><circle r="0.25" fill="#4d4d4d" cx="60.0" cy="36.5"/><circle r="0.25" fill="#4d4d4d" cx="67.5" cy="36.5"/><circle r="0.25" fill="#4d4d4d" cx="75.0" cy="36.5"/><circle r="0.25" fill="#4d4d4d" cx="82.5" cy="36.5"/><circle r="0.25" fill="#4d4d4d" cx="90.0" cy="36.5"/><circle r="0.25" fill="#4d4d4d" cx="97.5" cy="36.5"/><circle r="0.25" fill="#4d4d4d" cx="7.5" cy="44.0"/><circle r="0.25" fill="#4d4d4d" cx="15.0" cy="44.0"/><circle r="0.25" fill="#4d4d4d" cx="22.5" cy="44.0"/><circle r="0.25" fill="#4d4d4d" cx="30.0" cy="44.0"/><circle r="0.25" fill="#4d4d4d" cx="37.5" cy="44.0"/><circle r="0.25" fill="#4d4d4d" cx="45.0" cy="44.0"/><circle r="0.25" fill="#4d4d4d" cx="52.5" cy="44.0"/><circle r="0.25" fill="#4d4d4d" cx="60.0" cy="44.0"/><circle r="0.25" fill="#4d4d4d" cx="67.5" cy="44.0"/><circle r="0.25" fill="#4d4d4d" cx="75.0" cy="44.0"/><circle r="0.25" fill="#4d4d4d" cx="82.5" cy="44.0"/><circle r="0.25" fill="#4d4d4d" cx="90.0" cy="44.0"/><circle r="0.25" fill="#4d4d4d" cx="97.5" cy="44.0"/><circle r="0.25" fill="#4d4d4d" cx="7.5" cy="51.5"/><circle r="0.25" fill="#4d4d4d" cx="15.0" cy="51.5"/><circle r="0.25" fill="#4d4d4d" cx="22.5" cy="51.5"/><circle r="0.25" fill="#4d4d4d" cx="30.0" cy="51.5"/><circle r="0.25" fill="#4d4d4d" cx="37.5" cy="51.5"/><circle r="0.25" fill="#4d4d4d" cx="45.0" cy="51.5"/><circle r="0.25" fill="#4d4d4d" cx="52.5" cy="51.5"/><circle r="0.25" fill="#4d4d4d" cx="60.0" cy="51.5"/><circle r="0.25" fill="#4d4d4d" cx="67.5" cy="51.5"/><circle r="0.25" fill="#4d4d4d" cx="75.0" cy="51.5"/><circle r="0.25" fill="#4d4d4d" cx="82.5" cy="51.5"/><circle r="0.25" fill="#4d4d4d" cx="90.0" cy="51.5"/><circle r="0.25" fill="#4d4d4d" cx="97.5" cy="51.5"/><circle r="0.25" fill="#4d4d4d" cx="7.5" cy="59.0"/><circle r="0.25" fill="#4d4d4d" cx="15.0" cy="59.0"/><circle r="0.25" fill="#4d4d4d" cx="22.5" cy="59.0"/><circle r="0.25" fill="#4d4d4d" cx="30.0" cy="59.0"/><circle r="0.25" fill="#4d4d4d" cx="37.5" cy="59.0"/><circle r="0.25" fill="#4d4d4d" cx="45.0" cy="59.0"/><circle r="0.25" fill="#4d4d4d" cx="52.5" cy="59.0"/><circle r="0.25" fill="#4d4d4d" cx="60.0" cy="59.0"/><circle r="0.25" fill="#4d4d4d" cx="67.5" cy="59.0"/><circle r="0.25" fill="#4d4d4d" cx="75.0" cy="59.0"/><circle r="0.25" fill="#4d4d4d" cx="82.5" cy="59.0"/><circle r="0.25" fill="#4d4d4d" cx="90.0" cy="59.0"/><circle r="0.25" fill="#4d4d4d" cx="97.5" cy="59.0"/><circle r="0.25" fill="#4d4d4d" cx="7.5" cy="66.5"/><circle r="0.25" fill="#4d4d4d" cx="15.0" cy="66.5"/><circle r="0.25" fill="#4d4d4d" cx="22.5" cy="66.5"/><circle r="0.25" fill="#4d4d4d" cx="30.0" cy="66.5"/><circle r="0.25" fill="#4d4d4d" cx="37.5" cy="66.5"/><circle r="0.25" fill="#4d4d4d" cx="45.0" cy="66.5"/><circle r="0.25" fill="#4d4d4d" cx="52.5" cy="66.5"/><circle r="0.25" fill="#4d4d4d" cx="60.0" cy="66.5"/><circle r="0.25" fill="#4d4d4d" cx="67.5" cy="66.5"/><circle r="0.25" fill="#4d4d4d" cx="75.0" cy="66.5"/><circle r="0.25" fill="#4d4d4d" cx="82.5" cy="66.5"/><circle r="0.25" fill="#4d4d4d" cx="90.0" cy="66.5"/><circle r="0.25" fill="#4d4d4d" cx="97.5" cy="66.5"/><circle r="0.25" fill="#4d4d4d" cx="7.5" cy="74.0"/><circle r="0.25" fill="#4d4d4d" cx="15.0" cy="74.0"/><circle r="0.25" fill="#4d4d4d" cx="22.5" cy="74.0"/><circle r="0.25" fill="#4d4d4d" cx="30.0" cy="74.0"/><circle r="0.25" fill="#4d4d4d" cx="37.5" cy="74.0"/><circle r="0.25" fill="#4d4d4d" cx="45.0" cy="74.0"/><circle r="0.25" fill="#4d4d4d" cx="52.5" cy="74.0"/><circle r="0.25" fill="#4d4d4d" cx="60.0" cy="74.0"/><circle r="0.25" fill="#4d4d4d" cx="67.5" cy="74.0"/><circle r="0.25" fill="#4d4d4d" cx="75.0" cy="74.0"/><circle r="0.25" fill="#4d4d4d" cx="82.5" cy="74.0"/><circle r="0.25" fill="#4d4d4d" cx="90.0" cy="74.0"/><circle r="0.25" fill="#4d4d4d" cx="97.5" cy="74.0"/><circle r="0.25" fill="#4d4d4d" cx="7.5" cy="81.5"/><circle r="0.25" fill="#4d4d4d" cx="15.0" cy="81.5"/><circle r="0.25" fill="#4d4d4d" cx="22.5" cy="81.5"/><circle r="0.25" fill="#4d4d4d" cx="30.0" cy="81.5"/><circle r="0.25" fill="#4d4d4d" cx="37.5" cy="81.5"/><circle r="0.25" fill="#4d4d4d" cx="45.0" cy="81.5"/><circle r="0.25" fill="#4d4d4d" cx="52.5" cy="81.5"/><circle r="0.25" fill="#4d4d4d" cx="60.0" cy="81.5"/><circle r="0.25" fill="#4d4d4d" cx="67.5" cy="81.5"/><circle r="0.25" fill="#4d4d4d" cx="75.0" cy="81.5"/><circle r="0.25" fill="#4d4d4d" cx="82.5" cy="81.5"/><circle r="0.25" fill="#4d4d4d" cx="90.0" cy="81.5"/><circle r="0.25" fill="#4d4d4d" cx="97.5" cy="81.5"/><circle r="0.25" fill="#4d4d4d" cx="7.5" cy="89.0"/><circle r="0.25" fill="#4d4d4d" cx="15.0" cy="89.0"/><circle r="0.25" fill="#4d4d4d" cx="22.5" cy="89.0"/><circle r="0.25" fill="#4d4d4d" cx="30.0" cy="89.0"/><circle r="0.25" fill="#4d4d4d" cx="37.5" cy="89.0"/><circle r="0.25" fill="#4d4d4d" cx="45.0" cy="89.0"/><circle r="0.25" fill="#4d4d4d" cx="52.5" cy="89.0"/><circle r="0.25" fill="#4d4d4d" cx="60.0" cy="89.0"/><circle r="0.25" fill="#4d4d4d" cx="67.5" cy="89.0"/><circle r="0.25" fill="#4d4d4d" cx="75.0" cy="89.0"/><circle r="0.25" fill="#4d4d4d" cx="82.5" cy="89.0"/><circle r="0.25" fill="#4d4d4d" cx="90.0" cy="89.0"/><circle r="0.25" fill="#4d4d4d" cx="97.5" cy="89.0"/><circle r="0.25" fill="#4d4d4d" cx="7.5" cy="96.5"/><circle r="0.25" fill="#4d4d4d" cx="15.0" cy="96.5"/><circle r="0.25" fill="#4d4d4d" cx="22.5" cy="96.5"/><circle r="0.25" fill="#4d4d4d" cx="30.0" cy="96.5"/><circle r="0.25" fill="#4d4d4d" cx="37.5" cy="96.5"/><circle r="0.25" fill="#4d4d4d" cx="45.0" cy="96.5"/><circle r="0.25" fill="#4d4d4d" cx="52.5" cy="96.5"/><circle r="0.25" fill="#4d4d4d" cx="60.0" cy="96.5"/><circle r="0.25" fill="#4d4d4d" cx="67.5" cy="96.5"/><circle r="0.25" fill="#4d4d4d" cx="75.0" cy="96.5"/><circle r="0.25" fill="#4d4d4d" cx="82.5" cy="96.5"/><circle r="0.25" fill="#4d4d4d" cx="90.0" cy="96.5"/><circle r="0.25" fill="#4d4d4d" cx="97.5" cy="96.5"/><circle r="0.25" fill="#4d4d4d" cx="7.5" cy="104.0"/><circle r="0.25" fill="#4d4d4d" cx="15.0" cy="104.0"/><circle r="0.25" fill="#4d4d4d" cx="22.5" cy="104.0"/><circle r="0.25" fill="#4d4d4d" cx="30.0" cy="104.0"/><circle r="0.25" fill="#4d4d4d" cx="37.5" cy="104.0"/><circle r="0.25" fill="#4d4d4d" cx="45.0" cy="104.0"/><circle r="0.25" fill="#4d4d4d" cx="52.5" cy="104.0"/><circle r="0.25" fill="#4d4d4d" cx="60.0" cy="104.0"/><circle r="0.25" fill="#4d4d4d" cx="67.5" cy="104.0"/><circle r="0.25" fill="#4d4d4d" cx="75.0" cy="104.0"/><circle r="0.25" fill="#4d4d4d" cx="82.5" cy="104.0"/><circle r="0.25" fill="#4d4d4d" cx="90.0" cy="104.0"/><circle r="0.25" fill="#4d4d4d" cx="97.5" cy="104.0"/><circle r="0.25" fill="#4d4d4d" cx="7.5" cy="111.5"/><circle r="0.25" fill="#4d4d4d" cx="15.0" cy="111.5"/><circle r="0.25" fill="#4d4d4d" cx="22.5" cy="111.5"/><circle r="0.25" fill="#4d4d4d" cx="30.0" cy="111.5"/><circle r="0.25" fill="#4d4d4d" cx="37.5" cy="111.5"/><circle r="0.25" fill="#4d4d4d" cx="45.0" cy="111.5"/><circle r="0.25" fill="#4d4d4d" cx="52.5" cy="111.5"/><circle r="0.25" fill="#4d4d4d" cx="60.0" cy="111.5"/><circle r="0.25" fill="#4d4d4d" cx="67.5" cy="111.5"/><circle r="0.25" fill="#4d4d4d" cx="75.0" cy="111.5"/><circle r="0.25" fill="#4d4d4d" cx="82.5" cy="111.5"/><circle r="0.25" fill="#4d4d4d" cx="90.0" cy="111.5"/><circle r="0.25" fill="#4d4d4d" cx="97.5" cy="111.5"/><circle r="0.25" fill="#4d4d4d" cx="7.5" cy="119.0"/><circle r="0.25" fill="#4d4d4d" cx="15.0" cy="119.0"/><circle r="0.25" fill="#4d4d4d" cx="22.5" cy="119.0"/><circle r="0.25" fill="#4d4d4d" cx="30.0" cy="119.0"/><circle r="0.25" fill="#4d4d4d" cx="37.5" cy="119.0"/><circle r="0.25" fill="#4d4d4d" cx="45.0" cy="119.0"/><circle r="0.25" fill="#4d4d4d" cx="52.5" cy="119.0"/><circle r="0.25" fill="#4d4d4d" cx="60.0" cy="119.0"/><circle r="0.25" fill="#4d4d4d" cx="67.5" cy="119.0"/><circle r="0.25" fill="#4d4d4d" cx="75.0" cy="119.0"/><circle r="0.25" fill="#4d4d4d" cx="82.5" cy="119.0"/><circle r="0.25" fill="#4d4d4d" cx="90.0" cy="119.0"/><circle r="0.25" fill="#4d4d4d" cx="97.5" cy="119.0"/><circle r="0.25" fill="#4d4d4d" cx="7.5" cy="126.5"/><circle r="0.25" fill="#4d4d4d" cx="15.0" cy="126.5"/><circle r="0.25" fill="#4d4d4d" cx="22.5" cy="126.5"/><circle r="0.25" fill="#4d4d4d" cx="30.0" cy="126.5"/><circle r="0.25" fill="#4d4d4d" cx="37.5" cy="126.5"/><circle r="0.25" fill="#4d4d4d" cx="45.0" cy="126.5"/><circle r="0.25" fill="#4d4d4d" cx="52.5" cy="126.5"/><circle r="0.25" fill="#4d4d4d" cx="60.0" cy="126.5"/><circle r="0.25" fill="#4d4d4d" cx="67.5" cy="126.5"/><circle r="0.25" fill="#4d4d4d" cx="75.0" cy="126.5"/><circle r="0.25" fill="#4d4d4d" cx="82.5" cy="126.5"/><circle r="0.25" fill="#4d4d4d" cx="90.0" cy="126.5"/><circle r="0.25" fill="#4d4d4d" cx="97.5" cy="126.5"/><circle r="0.25" fill="#4d4d4d" cx="7.5" cy="134.0"/><circle r="0.25" fill="#4d4d4d" cx="15.0" cy="134.0"/><circle r="0.25" fill="#4d4d4d" cx="22.5" cy="134.0"/><circle r="0.25" fill="#4d4d4d" cx="30.0" cy="134.0"/><circle r="0.25" fill="#4d4d4d" cx="37.5" cy="134.0"/><circle r="0.25" fill="#4d4d4d" cx="45.0" cy="134.0"/><circle r="0.25" fill="#4d4d4d" cx="52.5" cy="134.0"/><circle r="0.25" fill="#4d4d4d" cx="60.0" cy="134.0"/><circle r="0.25" fill="#4d4d4d" cx="67.5" cy="134.0"/><circle r="0.25" fill="#4d4d4d" cx="75.0" cy="134.0"/><circle r="0.25" fill="#4d4d4d" cx="82.5" cy="134.0"/><circle r="0.25" fill="#4d4d4d" cx="90.0" cy="134.0"/><circle r="0.25" fill="#4d4d4d" cx="97.5" cy="134.0"/><circle r="0.25" fill="#4d4d4d" cx="7.5" cy="141.5"/><circle r="0.25" fill="#4d4d4d" cx="15.0" cy="141.5"/><circle r="0.25" fill="#4d4d4d" cx="22.5" cy="141.5"/><circle r="0.25" fill="#4d4d4d" cx="30.0" cy="141.5"/><circle r="0.25" fill="#4d4d4d" cx="37.5" cy="141.5"/><circle r="0.25" fill="#4d4d4d" cx="45.0" cy="141.5"/><circle r="0.25" fill="#4d4d4d" cx="52.5" cy="141.5"/><circle r="0.25" fill="#4d4d4d" cx="60.0" cy="141.5"/><circle r="0.25" fill="#4d4d4d" cx="67.5" cy="141.5"/><circle r="0.25" fill="#4d4d4d" cx="75.0" cy="141.5"/><circle r="0.25" fill="#4d4d4d" cx="82.5" cy="141.5"/><circle r="0.25" fill="#4d4d4d" cx="90.0" cy="141.5"/><circle r="0.25" fill="#4d4d4d" cx="97.5" cy="141.5"/><circle r="0.25" fill="#4d4d4d" cx="8.5" cy="41.5"/><circle r="0.25" fill="#4d4d4d" cx="6.5" cy="41.5"/><circle r="0.25" fill="#4d4d4d" cx="98.5" cy="41.5"/><circle r="0.25" fill="#4d4d4d" cx="96.5" cy="41.5"/><circle r="0.25" fill="#4d4d4d" cx="8.5" cy="76.5"/><circle r="0.25" fill="#4d4d4d" cx="6.5" cy="76.5"/><circle r="0.25" fill="#4d4d4d" cx="98.5" cy="76.5"/><circle r="0.25" fill="#4d4d4d" cx="96.5" cy="76.5"/><circle r="0.25" fill="#4d4d4d" cx="8.5" cy="111.5"/><circle r="0.25" fill="#4d4d4d" cx="6.5" cy="111.5"/><circle r="0.25" fill="#4d4d4d" cx="98.5" cy="111.5"/><circle r="0.25" fill="#4d4d4d" cx="96.5" cy="111.5"/><circle r="0.25" fill="#4d4d4d" cx="97.5" cy="14.0"/><circle r="0.25" fill="#4d4d4d" cx="95.0" cy="14.0"/><circle r="0.25" fill="#4d4d4d" cx="92.5" cy="14.0"/><circle r="0.25" fill="#4d4d4d" cx="90.0" cy="14.0"/><circle r="0.25" fill="#4d4d4d" cx="87.5" cy="14.0"/><circle r="0.25" fill="#4d4d4d" cx="85.0" cy="14.0"/><circle r="0.25" fill="#4d4d4d" cx="82.5" cy="14.0"/><circle r="0.25" fill="#4d4d4d" cx="80.0" cy="14.0"/><circle r="0.25" fill="#4d4d4d" cx="77.5" cy="14.0"/><circle r="0.25" fill="#4d4d4d" cx="75.0" cy="14.0"/></svg>